<svg height="512pt" viewBox="0 -95 512.00015 512" width="512pt" xmlns="http://www.w3.org/2000/svg"><g fill="#cfdde1"><path d="m192.003906 247.925781h-28.582031c-8.375 0-15.164063-6.789062-15.164063-15.164062s6.789063-15.167969 15.164063-15.167969h28.582031c14.832032 0 26.894532-12.0625 26.894532-26.894531v-7.742188c0-8.375 6.789062-15.164062 15.167968-15.164062 8.375 0 15.164063 6.789062 15.164063 15.164062v7.742188c0 31.554687-25.671875 57.226562-57.226563 57.226562zm0 0"/><path d="m168.730469 54.554688-24.699219-46.5c-3.691406-6.945313-12.078125-9.921876-19.320312-6.847657l-41.027344 17.417969c-7.238282 3.074219-10.929688 11.171875-8.496094 18.652344l16.292969 50.066406c1.316406 4.042969 4.269531 7.347656 8.136719 9.109375 1.996093.910156 4.140624 1.363281 6.285156 1.363281 2.015625 0 4.03125-.398437 5.925781-1.203125l49.433594-20.984375c3.914062-1.660156 6.949219-4.886718 8.367187-8.894531 1.421875-4.007813 1.09375-8.425781-.898437-12.179687zm0 0"/><path d="m496.835938 121.515625h-107.070313c-8.375 0-15.167969-6.789063-15.167969-15.164063v-51.867187c0-8.375 6.792969-15.164063 15.167969-15.164063h107.070313c8.375 0 15.164062 6.789063 15.164062 15.164063v51.867187c0 8.375-6.789062 15.164063-15.164062 15.164063zm0 0"/></g><path d="m374.597656 106.109375v.242187c0 8.375 6.792969 15.164063 15.167969 15.164063h107.070313c8.375 0 15.164062-6.789063 15.164062-15.164063v-.242187zm0 0" fill="#b5c4cf"/><path d="m377.949219 196.394531h-295.875c-8.375 0-15.164063-6.789062-15.164063-15.164062v-98.886719c0-4.355469 1.871094-8.5 5.136719-11.378906 3.269531-2.878906 7.617187-4.214844 11.933594-3.667969 1.917969.246094 3.707031.421875 5.476562.546875 1.898438.132812 3.671875.195312 5.425781.195312 16.261719 0 31.589844-4.421874 43.152344-12.457031 10.273438-7.136719 16.433594-16.375 17.339844-26.011719.734375-7.789062 7.273438-13.746093 15.097656-13.746093h207.480469c7.1875 0 13.957031 2.8125 19.0625 7.914062 5.109375 5.117188 7.914063 11.886719 7.914063 19.074219v126.59375c0 7.191406-2.804688 13.964844-7.902344 19.066406-5.113282 5.113282-11.886719 7.921875-19.078125 7.921875zm0 0" fill="#007aa0"/><path d="m66.910156 106.109375v75.121094c0 8.375 6.789063 15.164062 15.164063 15.164062h295.875c7.191406 0 13.964843-2.808593 19.074219-7.921875 5.097656-5.105468 7.90625-11.875 7.90625-19.066406v-63.296875zm0 0" fill="#005f7e"/><path d="m322.542969 151.585938h-83.28125c-5.167969 0-10.027344-2.019532-13.679688-5.683594-3.640625-3.632813-5.65625-8.488282-5.65625-13.65625v-52.273438c0-5.164062 2.015625-10.019531 5.675781-13.675781 3.648438-3.648437 8.503907-5.660156 13.660157-5.660156h83.28125c5.160156 0 10.011719 2.011719 13.667969 5.667969s5.667968 8.507812 5.667968 13.667968v52.273438c0 5.160156-2.011718 10.015625-5.667968 13.671875-3.640626 3.648437-8.5 5.667969-13.667969 5.667969zm0 0" fill="#cfdde1"/><path d="m219.925781 132.246094c0 5.164062 2.015625 10.023437 5.65625 13.65625 3.652344 3.664062 8.511719 5.683594 13.679688 5.683594h83.28125c5.167969 0 10.027343-2.019532 13.667969-5.667969 3.65625-3.65625 5.667968-8.511719 5.667968-13.671875v-26.136719h-121.953125zm0 0" fill="#b5c4cf"/><path d="m189.023438 152.496094c-4.179688-14.234375-15.824219-33.191406-47.5625-42.679688-23.5-7.023437-48.128907-1.601562-67.582032 14.871094-13.578125 11.5-22.960937 27.464844-29.621094 40.085938-5.21875 9.890624-17.804687 36.636718-24.3125 54.730468-6.808593 18.933594-15.867187 50.449219-19.660156 74.898438-1.171875 7.585937 1.308594 15.128906 6.8125 20.699218 4.90625 4.96875 11.601563 7.703126 18.84375 7.703126h101.347656c6.707032 0 13.25-2.40625 18.433594-6.78125 4.808594-4.066407 8.054688-9.695313 9.398438-16.269532 3.71875-18.246094 7.042968-32.664062 13.039062-52.347656 3.773438-12.390625 8.246094-24.703125 12.191406-35.566406 1.859376-5.117188 3.613282-9.949219 5.007813-14.027344 3.921875-11.453125 8.566406-28.617188 3.664063-45.316406zm0 0" fill="#8f5040"/></svg>