<svg height="512pt" viewBox="-124 0 512 512" width="512pt" xmlns="http://www.w3.org/2000/svg"><path d="m132.246094 0c-72.921875 0-132.246094 59.324219-132.246094 132.246094v322.03125c0 8.285156 6.714844 15 15 15s15-6.714844 15-15v-322.03125c0-56.378906 45.867188-102.246094 102.246094-102.246094s102.246094 45.867188 102.246094 102.246094v277.773437c0 39.691407-32.289063 71.980469-71.980469 71.980469-39.691407 0-71.980469-32.289062-71.980469-71.980469v-270.316406c0-23.003906 18.714844-41.714844 41.714844-41.714844 25.269531 0 45.828125 20.558594 45.828125 45.828125v253.71875c0 9.636719-7.835938 17.472656-17.46875 17.472656-7.367188 0-13.359375-5.992187-13.359375-13.359374v-239.179688c0-8.285156-6.714844-15-15-15-8.28125 0-15 6.714844-15 15v239.179688c0 23.90625 19.453125 43.359374 43.359375 43.359374 26.175781 0 47.46875-21.296874 47.46875-47.472656v-253.722656c0-41.808594-34.015625-75.828125-75.828125-75.828125-39.542969 0-71.714844 32.171875-71.714844 71.71875v270.3125c0 56.234375 45.75 101.984375 101.980469 101.984375s101.980469-45.75 101.980469-101.984375v-277.769531c0-72.921875-59.324219-132.246094-132.246094-132.246094zm0 0" fill="#ebf7ff"/><g fill="#c4e5ff"><path d="m208.074219 397.535156v-253.722656c0-41.808594-34.015625-75.828125-75.828125-75.828125-.199219 0-.394532.015625-.59375.015625v30c.199218-.003906.394531-.015625.59375-.015625 25.269531 0 45.828125 20.558594 45.828125 45.828125v253.722656c0 9.632813-7.835938 17.46875-17.46875 17.46875-7.367188 0-13.359375-5.992187-13.359375-13.355468v-239.179688c0-8.285156-6.714844-15-15-15-.199219 0-.394532.023438-.59375.03125v286.386719c7.683594 6.910156 17.835937 11.121093 28.953125 11.121093 26.175781 0 47.46875-21.296874 47.46875-47.472656zm0 0"/><path d="m132.246094 0c-.199219 0-.394532.0078125-.59375.0078125v29.9999995c.199218 0 .394531-.007812.59375-.007812 56.378906 0 102.246094 45.867188 102.246094 102.246094v277.773437c0 39.691407-32.289063 71.980469-71.980469 71.980469-11.039063 0-21.5-2.503906-30.859375-6.964844v32.1875c9.738281 3.097656 20.105468 4.777344 30.859375 4.777344 56.234375 0 101.980469-45.75 101.980469-101.980469v-277.773437c0-72.921875-59.324219-132.246094-132.246094-132.246094zm0 0"/></g></svg>