<svg height="512pt" viewBox="-125 0 512 512.00034" width="512pt" xmlns="http://www.w3.org/2000/svg"><path d="m77.761719 30.410156h-27.820313c-10.691406 0-19.390625 8.699219-19.390625 19.390625v345.042969c0 4.324219 3.507813 7.828125 7.832031 7.828125h50.941407c4.324219 0 7.828125-3.503906 7.828125-7.828125v-345.042969c0-10.691406-8.699219-19.390625-19.390625-19.390625zm0 0" fill="#ad796a"/><path d="m77.761719 30.410156h-13.910157v372.265625h25.472657c4.324219 0 7.832031-3.507812 7.832031-7.832031v-345.042969c-.003906-10.691406-8.703125-19.390625-19.394531-19.390625zm0 0" fill="#7d5547"/><path d="m93.664062 387.011719h-59.621093c-8.636719 0-15.660157 7.027343-15.660157 15.664062v50.824219h90.941407v-50.824219c0-8.636719-7.023438-15.664062-15.660157-15.664062zm0 0" fill="#ffdf73"/><path d="m109.324219 453.5v-50.824219c0-8.636719-7.023438-15.664062-15.660157-15.664062h-29.8125v66.488281zm0 0" fill="#feba4e"/><path d="m63.851562 512c-25.070312 0-45.46875-20.398438-45.46875-45.472656v-20.859375c0-4.324219 3.503907-7.828125 7.828126-7.828125h75.28125c4.328124 0 7.832031 3.503906 7.832031 7.828125v20.859375c0 25.074218-20.398438 45.472656-45.472657 45.472656zm0 0" fill="#ad796a"/><path d="m101.492188 437.839844h-37.640626v74.160156c25.074219 0 45.472657-20.398438 45.472657-45.472656v-20.859375c0-4.324219-3.503907-7.828125-7.832031-7.828125zm0 0" fill="#7d5547"/><path d="m198 268.265625c-.238281 0-.472656-.003906-.710938-.011719-6.375-.199218-12.417968-3.101562-16.566406-7.960937-31.480468-36.855469-62.578125-57.375-92.441406-61l-50.03125-.832031h-12.332031c-14.292969 0-25.917969-11.628907-25.917969-25.917969v-76.8125c0-14.292969 11.625-25.917969 25.917969-25.917969h12.332031l50.03125-.828125c29.851562-3.625 60.949219-24.144531 92.441406-61.003906 4.152344-4.859375 10.191406-7.761719 16.570313-7.9609378 6.359375-.1953122 12.546875 2.3085938 16.976562 6.8749998 14.214844 14.667969 47.277344 56.421875 47.277344 127.242188 0 70.820312-33.0625 112.578125-47.277344 127.242187-4.265625 4.402344-10.160156 6.886719-16.269531 6.886719zm0 0" fill="#ddeaf2"/><path d="m214.269531 6.894531c-4.429687-4.566406-10.617187-7.070312-16.976562-6.8749998-6.378907.1992188-12.417969 3.1015628-16.570313 7.9609378-31.492187 36.859375-62.589844 57.378906-92.441406 61.003906l-24.429688.40625v129.496094l24.429688.40625c29.863281 3.625 60.960938 24.144531 92.441406 61 4.148438 4.859375 10.1875 7.761719 16.566406 7.964843.238282.007813.472657.011719.710938.011719 6.109375 0 12.003906-2.488281 16.269531-6.890625 14.214844-14.664062 47.277344-56.421875 47.277344-127.238281 0-70.824219-33.0625-112.578125-47.277344-127.246094zm0 0" fill="#c7dbe5"/><path d="m214.265625 6.890625c-4.429687-4.566406-10.609375-7.109375-16.980469-6.875-6.371094.199219-12.402344 3.09375-16.546875 7.945313-4.527343 5.296874-9.0625 10.277343-13.582031 14.914062 15.316406 21.230469 33.992188 58.035156 33.992188 111.261719 0 53.226562-18.675782 90.03125-33.988282 111.261719 4.515625 4.636718 9.054688 9.617187 13.578125 14.910156 4.144531 4.851562 10.175781 7.75 16.546875 7.949218.238282.007813.472656.011719.707032.011719 6.109374 0 12.007812-2.488281 16.273437-6.886719 14.214844-14.667968 47.28125-56.421874 47.28125-127.246093s-33.066406-112.578125-47.28125-127.246094zm0 0" fill="#f1f7fa"/></svg>