<?xml version="1.0" encoding="iso-8859-1"?>
<!-- Generator: Adobe Illustrator 19.0.0, SVG Export Plug-In . SVG Version: 6.00 Build 0)  -->
<svg version="1.1" id="Capa_1" xmlns="http://www.w3.org/2000/svg" xmlns:xlink="http://www.w3.org/1999/xlink" x="0px" y="0px"
	 viewBox="0 0 512 512" style="enable-background:new 0 0 512 512;" xml:space="preserve">
<path style="fill:#2D69AD;" d="M256,512c-68.38,0-132.667-26.629-181.019-74.981S0,324.38,0,256S26.629,123.333,74.981,74.981
	S187.62,0,256,0s132.667,26.629,181.019,74.981C485.37,123.333,512,187.62,512,256s-26.629,132.667-74.981,181.019
	C388.667,485.37,324.38,512,256,512z"/>
<path style="fill:#E0F4FF;" d="M256,385.519c-71.417,0-129.519-58.102-129.519-129.519S184.583,126.481,256,126.481
	S385.519,184.583,385.519,256S327.417,385.519,256,385.519z"/>
<path style="fill:#2D69AD;" d="M297.653,229.525c0-22.967-18.686-41.653-41.653-41.653s-41.653,18.686-41.653,41.653
	c0,10.047,3.576,19.275,9.521,26.477c-5.946,7.202-9.521,16.429-9.521,26.476c0,22.967,18.686,41.653,41.653,41.653
	s41.653-18.686,41.653-41.653c0-10.047-3.576-19.274-9.521-26.476C294.077,248.799,297.653,239.572,297.653,229.525z M256,218.228
	c6.229,0,11.297,5.068,11.297,11.297s-5.068,11.297-11.297,11.297s-11.297-5.068-11.297-11.297S249.771,218.228,256,218.228z
	 M256,293.775c-6.229,0-11.297-5.068-11.297-11.297c0-6.229,5.068-11.296,11.297-11.296s11.297,5.067,11.297,11.296
	C267.297,288.707,262.229,293.775,256,293.775z"/>
<path style="fill:#1B3359;" d="M256,0c-0.001,0-0.002,0-0.003,0v512c0.001,0,0.002,0,0.003,0c68.38,0,132.667-26.629,181.019-74.981
	C485.37,388.667,512,324.38,512,256s-26.629-132.667-74.981-181.019S324.38,0,256,0z"/>
<path style="fill:#B7E3FF;" d="M256,126.481c-0.001,0-0.002,0-0.003,0v259.039c0.001,0,0.002,0,0.003,0
	c71.417,0,129.519-58.102,129.519-129.519S327.417,126.481,256,126.481z"/>
<path style="fill:#1B3359;" d="M256,187.872c-0.001,0-0.002,0-0.003,0v30.355c0.001,0,0.002,0,0.003,0
	c6.229,0,11.297,5.068,11.297,11.297s-5.068,11.297-11.297,11.297c-0.001,0-0.002,0-0.003,0v30.359c0.001,0,0.002,0,0.003,0
	c6.229,0,11.297,5.067,11.297,11.296c0,6.229-5.068,11.297-11.297,11.297c-0.001,0-0.002,0-0.003,0v30.355c0.001,0,0.002,0,0.003,0
	c22.967,0,41.653-18.686,41.653-41.653c0-10.047-3.576-19.274-9.521-26.476c5.946-7.202,9.521-16.43,9.521-26.477
	C297.653,206.558,278.967,187.872,256,187.872z"/>
<g>
</g>
<g>
</g>
<g>
</g>
<g>
</g>
<g>
</g>
<g>
</g>
<g>
</g>
<g>
</g>
<g>
</g>
<g>
</g>
<g>
</g>
<g>
</g>
<g>
</g>
<g>
</g>
<g>
</g>
</svg>
