<?xml version="1.0" encoding="iso-8859-1"?>
<!-- Generator: Adobe Illustrator 21.0.0, SVG Export Plug-In . SVG Version: 6.00 Build 0)  -->
<svg version="1.1" id="Capa_1" xmlns="http://www.w3.org/2000/svg" xmlns:xlink="http://www.w3.org/1999/xlink" x="0px" y="0px"
	 viewBox="0 0 512 512" style="enable-background:new 0 0 512 512;" xml:space="preserve">
<path style="fill:#E50058;" d="M147.692,54.154h-39.385C83.876,54.154,64,74.03,64,98.462V128c0,8.157,6.613,14.769,14.769,14.769
	h98.462c8.157,0,14.769-6.613,14.769-14.769V98.462C192,74.03,172.124,54.154,147.692,54.154z"/>
<path style="fill:#4895FF;" d="M512,157.538v256c0,24.428-19.879,44.308-44.308,44.308H44.308C19.879,457.846,0,437.967,0,413.538
	v-256c0-24.428,19.879-44.308,44.308-44.308h423.385C492.121,113.231,512,133.11,512,157.538z"/>
<path style="fill:#046EFF;" d="M467.692,113.231h-212.19v344.615h212.19c24.428,0,44.308-19.879,44.308-44.308v-256
	C512,133.11,492.121,113.231,467.692,113.231z"/>
<path style="fill:#E2BF29;" d="M433.231,201.846h-39.385c-8.157,0-14.769-6.613-14.769-14.769c0-8.157,6.613-14.769,14.769-14.769
	h39.385c8.157,0,14.769,6.613,14.769,14.769C448,195.233,441.387,201.846,433.231,201.846z"/>
<path style="fill:#EDEEF0;" d="M512,270.769H368.268c-7.26-55.482-54.837-98.462-112.268-98.462s-105.008,42.979-112.268,98.462H0
	v29.538h143.732c7.26,55.482,54.837,98.462,112.268,98.462s105.008-42.979,112.268-98.462H512V270.769z"/>
<path style="fill:#D8D9DD;" d="M256,172.308c-0.166,0-0.331,0.005-0.497,0.006v226.45c0.166,0.001,0.331,0.006,0.497,0.006
	c57.431,0,105.008-42.979,112.268-98.462H512v-29.538H368.268C361.008,215.287,313.431,172.308,256,172.308z"/>
<path style="fill:#64CA6E;" d="M256,231.385c-29.86,0-54.154,24.293-54.154,54.154c0,29.86,24.293,54.154,54.154,54.154
	s54.154-24.293,54.154-54.154C310.154,255.678,285.86,231.385,256,231.385z"/>
<path style="fill:#47A54E;" d="M256,231.385c-0.166,0-0.331,0.011-0.497,0.013V339.68c0.166,0.001,0.331,0.013,0.497,0.013
	c29.86,0,54.154-24.293,54.154-54.154C310.154,255.678,285.86,231.385,256,231.385z"/>
<g>
</g>
<g>
</g>
<g>
</g>
<g>
</g>
<g>
</g>
<g>
</g>
<g>
</g>
<g>
</g>
<g>
</g>
<g>
</g>
<g>
</g>
<g>
</g>
<g>
</g>
<g>
</g>
<g>
</g>
</svg>
