<svg height="512pt" viewBox="-125 0 512 512" width="512pt" xmlns="http://www.w3.org/2000/svg"><path d="m224.210938 103.792969c-24.746094-34.675781-57.902344-53.773438-93.359376-53.773438-35.460937 0-68.613281 19.097657-93.359374 53.773438-24.175782 33.878906-37.492188 78.785156-37.492188 126.449219 0 47.667968 13.316406 92.574218 37.492188 126.453124 24.746093 34.671876 57.898437 53.769532 93.359374 53.769532 35.457032 0 68.613282-19.097656 93.359376-53.769532 24.175781-33.878906 37.492187-78.785156 37.492187-126.453124 0-47.664063-13.316406-92.574219-37.492187-126.449219zm0 0" fill="#ffdf45"/><path d="m224.210938 103.792969c-24.746094-34.675781-57.902344-53.773438-93.359376-53.773438v360.445313c35.457032 0 68.613282-19.097656 93.359376-53.773438 24.175781-33.875 37.492187-78.78125 37.492187-126.449218 0-47.664063-13.316406-92.574219-37.492187-126.449219zm0 0" fill="#ffa100"/><path d="m130.851562 316.683594c-30.238281 0-46.886718-15.734375-46.886718-44.296875 0-30.410157 37.296875-66.273438 41.546875-70.261719 3.003906-2.816406 7.675781-2.816406 10.679687 0 4.25 3.988281 41.546875 39.851562 41.546875 70.261719 0 28.5625-16.652343 44.296875-46.886719 44.296875zm0 0" fill="#ff5b5b"/><path d="m136.1875 202.125c-1.5-1.40625-3.417969-2.113281-5.335938-2.113281v116.667969c30.234376 0 46.886719-15.730469 46.886719-44.296876 0-30.40625-37.296875-66.269531-41.550781-70.257812zm0 0" fill="#ff2323"/><path d="m130.851562 285.472656c-10.445312 0-16.199218-5.4375-16.199218-15.304687 0-10.503907 12.886718-22.894531 14.355468-24.269531 1.035157-.972657 2.648438-.972657 3.6875 0 1.46875 1.378906 14.351563 13.765624 14.351563 24.269531 0 9.867187-5.75 15.304687-16.195313 15.304687zm0 0" fill="#ffdf45"/><path d="m132.695312 245.898438c-.519531-.488282-1.183593-.730469-1.84375-.730469v40.304687c10.445313 0 16.195313-5.4375 16.195313-15.304687 0-10.503907-12.882813-22.894531-14.351563-24.269531zm0 0" fill="#ffa100"/><path d="m163.976562 309.398438h-66.253906c-4.308594 0-7.800781 3.496093-7.800781 7.804687v37.300781c0 4.308594 3.492187 7.800782 7.800781 7.800782h66.253906c4.3125 0 7.804688-3.492188 7.804688-7.800782v-37.300781c0-4.308594-3.496094-7.804687-7.804688-7.804687zm0 0" fill="#dcecf0"/><path d="m171.78125 354.503906v-37.300781c0-4.308594-3.492188-7.804687-7.804688-7.804687h-33.125v52.90625h33.125c4.308594 0 7.804688-3.492188 7.804688-7.800782zm0 0" fill="#a8d3d7"/><path d="m231.882812 460.488281h-202.0625c-2.277343 0-4.441406-.996093-5.921874-2.726562-1.484376-1.726563-2.136719-4.015625-1.789063-6.265625l15.140625-98.183594c.585938-3.804688 3.859375-6.613281 7.710938-6.613281h171.78125c3.847656 0 7.125 2.808593 7.710937 6.613281l15.140625 98.183594c.347656 2.25-.304688 4.539062-1.789062 6.265625-1.484376 1.730469-3.644532 2.726562-5.921876 2.726562zm0 0" fill="#007aa0"/><path d="m239.59375 451.496094-15.140625-98.183594c-.585937-3.804688-3.863281-6.613281-7.714844-6.613281h-85.890625v113.789062h101.03125c2.277344 0 4.441406-.996093 5.921875-2.726562 1.488281-1.726563 2.140625-4.015625 1.792969-6.265625zm0 0" fill="#005f7e"/><path d="m159.585938 419.339844h-57.472657c-8.617187 0-15.605469-6.988282-15.605469-15.605469s6.988282-15.605469 15.605469-15.605469h57.472657c8.621093 0 15.605468 6.988282 15.605468 15.605469s-6.984375 15.605469-15.605468 15.605469zm0 0" fill="#dcecf0"/><path d="m159.585938 388.128906h-28.734376v31.210938h28.734376c8.621093 0 15.605468-6.988282 15.605468-15.605469s-6.984375-15.605469-15.605468-15.605469zm0 0" fill="#a8d3d7"/><path d="m209.828125 512h-157.953125c-16.464844 0-29.859375-13.394531-29.859375-29.859375v-29.457031c0-4.308594 3.496094-7.800782 7.804687-7.800782h202.0625c4.308594 0 7.800782 3.492188 7.800782 7.800782v29.457031c0 16.464844-13.394532 29.859375-29.855469 29.859375zm0 0" fill="#005f7e"/><path d="m231.882812 444.882812h-101.03125v67.117188h78.976563c16.460937 0 29.855469-13.394531 29.855469-29.859375v-29.457031c0-4.308594-3.492188-7.800782-7.800782-7.800782zm0 0" fill="#00455f"/><path d="m159.585938 56.476562h-57.472657c-4.308593 0-7.800781-3.496093-7.800781-7.804687v-25.394531c0-12.835938 10.441406-23.277344 23.273438-23.277344h26.527343c12.835938 0 23.277344 10.441406 23.277344 23.277344v25.394531c0 4.308594-3.492187 7.804687-7.804687 7.804687zm0 0" fill="#005f7e"/><path d="m167.390625 48.671875v-25.394531c0-12.835938-10.441406-23.277344-23.277344-23.277344h-13.261719v56.476562h28.734376c4.3125 0 7.804687-3.496093 7.804687-7.804687zm0 0" fill="#00455f"/><path d="m216.742188 115.226562h-171.78125c-4.3125 0-7.804688-3.496093-7.804688-7.804687v-36.695313c0-16.464843 13.394531-29.855468 29.859375-29.855468h127.667969c16.464844 0 29.859375 13.394531 29.859375 29.855468v36.695313c0 4.308594-3.492188 7.804687-7.800781 7.804687zm0 0" fill="#007aa0"/><path d="m224.542969 107.421875v-36.695313c0-16.464843-13.394531-29.855468-29.855469-29.855468h-63.835938v74.355468h85.890626c4.308593 0 7.800781-3.496093 7.800781-7.804687zm0 0" fill="#005f7e"/></svg>