<svg height="512pt" viewBox="-172 0 512 512.00104" width="512pt" xmlns="http://www.w3.org/2000/svg"><path d="m135.503906 83.886719-40.46875-76.871094c-2.347656-4.457031-6.1875-7.015625-10.535156-7.015625-4.351562 0-8.191406 2.558594-10.539062 7.015625l-40.480469 76.871094c-2.585938 4.910156-4.53125 12.792969-4.53125 18.339843v247.726563c0 8.605469 6.996093 15.601563 15.601562 15.601563h79.886719c8.601562 0 15.597656-6.996094 15.597656-15.601563v-247.726563c0-5.546874-1.949218-13.429687-4.53125-18.339843zm0 0" fill="#cfdde1"/><path d="m135.503906 83.886719-40.46875-76.871094c-2.347656-4.457031-6.1875-7.015625-10.535156-7.015625v365.554688h39.933594c8.605468 0 15.601562-6.996094 15.601562-15.601563v-247.726563c0-5.546874-1.949218-13.429687-4.53125-18.339843zm0 0" fill="#b5c4cf"/><path d="m84.5 373.355469c-8.617188 0-15.601562-6.984375-15.601562-15.601563v-122.890625c0-8.617187 6.984374-15.601562 15.601562-15.601562 8.613281 0 15.601562 6.984375 15.601562 15.601562v122.890625c0 8.617188-6.988281 15.601563-15.601562 15.601563zm0 0" fill="#f2f8f9"/><path d="m84.5 219.261719v154.09375c8.613281 0 15.601562-6.984375 15.601562-15.601563v-122.890625c0-8.617187-6.988281-15.601562-15.601562-15.601562zm0 0" fill="#e1ecef"/><path d="m126.394531 396.789062h-83.800781c-4.308594 0-7.800781 3.492188-7.800781 7.800782v57.707031c0 27.40625 22.296875 49.703125 49.703125 49.703125s49.699218-22.296875 49.699218-49.703125v-57.707031c0-4.308594-3.492187-7.800782-7.800781-7.800782zm0 0" fill="#007aa0"/><path d="m134.195312 462.296875v-57.707031c0-4.308594-3.488281-7.800782-7.800781-7.800782h-41.894531v115.210938c27.402344-.003906 49.695312-22.296875 49.695312-49.703125zm0 0" fill="#005f7e"/><path d="m159.621094 351.917969h-150.261719c-5.160156 0-9.359375 4.199219-9.359375 9.359375v41.753906c0 5.160156 4.199219 9.359375 9.359375 9.359375h150.261719c5.164062 0 9.363281-4.199219 9.363281-9.359375v-41.753906c0-5.160156-4.199219-9.359375-9.363281-9.359375zm0 0" fill="#ffdf45"/><path d="m159.621094 351.917969h-75.125v60.472656h75.125c5.164062 0 9.363281-4.199219 9.363281-9.359375v-41.753906c0-5.160156-4.199219-9.359375-9.363281-9.359375zm0 0" fill="#ffa100"/></svg>