<svg viewBox="-56 1 511 511.99998" xmlns="http://www.w3.org/2000/svg"><path d="m126.457031 512c-2.9375 0-5.910156-.859375-8.511719-2.65625-6.820312-4.710938-8.535156-14.054688-3.828124-20.878906l45.511718-65.941406c4.710938-6.824219 14.058594-8.539063 20.878906-3.828126 6.824219 4.707032 8.535157 14.054688 3.828126 20.878907l-45.511719 65.941406c-2.914063 4.21875-7.601563 6.484375-12.367188 6.484375zm0 0" fill="#ff9100"/><path d="m273.054688 512c-4.765626 0-9.453126-2.265625-12.367188-6.484375l-45.511719-65.941406c-4.707031-6.824219-2.992187-16.171875 3.828125-20.878907 6.820313-4.710937 16.167969-2.996093 20.878906 3.828126l45.511719 65.941406c4.710938 6.824218 2.996094 16.167968-3.828125 20.878906-2.601562 1.796875-5.570312 2.65625-8.511718 2.65625zm0 0" fill="#ff641a"/><path d="m399.011719 81.90625v276.800781c0 27.246094-22.164063 49.421875-49.410157 49.421875h-299.691406c-27.246094 0-49.410156-22.175781-49.410156-49.421875v-276.800781c0-27.246094 22.164062-49.417969 49.410156-49.417969h299.691406c27.246094 0 49.410157 22.171875 49.410157 49.417969zm0 0" fill="#f5f0eb"/><path d="m399.011719 81.90625v276.800781c0 27.246094-22.164063 49.421875-49.410157 49.421875h-149.683593v-375.640625h149.683593c27.246094 0 49.410157 22.171875 49.410157 49.417969zm0 0" fill="#ebe1dc"/><path d="m334.59375 47.496094c0 26.195312-21.300781 47.5-47.496094 47.5h-174.351562c-26.195313 0-47.5-21.304688-47.5-47.5 0-26.195313 21.304687-47.496094 47.5-47.496094h174.351562c26.195313 0 47.496094 21.300781 47.496094 47.496094zm0 0" fill="#ffb64c"/><path d="m303.578125 393.117188c0 26.195312-21.304687 47.5-47.5 47.5h-112.316406c-26.195313 0-47.496094-21.304688-47.496094-47.5 0-26.195313 21.300781-47.496094 47.496094-47.496094h112.316406c26.195313 0 47.5 21.300781 47.5 47.496094zm0 0" fill="#ffb64c"/><g fill="#ff9100"><path d="m303.578125 393.117188c0 26.195312-21.304687 47.5-47.5 47.5h-56.160156v-94.996094h56.160156c26.195313 0 47.5 21.300781 47.5 47.496094zm0 0"/><path d="m334.59375 47.496094c0 26.195312-21.300781 47.5-47.496094 47.5h-87.179687v-94.996094h87.179687c26.195313 0 47.496094 21.300781 47.496094 47.496094zm0 0"/></g></svg>