<svg height="511pt" viewBox="-33 1 511 511.99894" width="511pt" xmlns="http://www.w3.org/2000/svg"><path d="m223.484375 0c-22.15625 0-40.175781 18.023438-40.175781 40.175781v33.832031c0 4.402344 3.570312 7.972657 7.972656 7.972657h64.402344c4.40625 0 7.976562-3.570313 7.976562-7.972657v-33.832031c0-22.152343-18.023437-40.175781-40.175781-40.175781zm0 0" fill="#ffce00"/><path d="m263.660156 74.007812v-33.832031c0-22.152343-18.023437-40.175781-40.175781-40.175781v81.980469h32.199219c4.40625 0 7.976562-3.570313 7.976562-7.972657zm0 0" fill="#edb100"/><path d="m223.484375 66.03125c-122.957031 0-222.984375 100.03125-222.984375 222.984375s100.03125 222.984375 222.984375 222.984375c122.949219 0 222.980469-100.03125 222.980469-222.984375s-100.027344-222.984375-222.980469-222.984375zm0 0" fill="#ffdf45"/><path d="m223.484375 66.03125v445.96875c122.953125 0 222.980469-100.03125 222.980469-222.984375s-100.027344-222.984375-222.980469-222.984375zm0 0" fill="#ffce00"/><path d="m223.484375 119.785156c-93.316406 0-169.234375 75.917969-169.234375 169.230469 0 93.316406 75.917969 169.230469 169.234375 169.230469 93.3125 0 169.230469-75.917969 169.230469-169.230469s-75.917969-169.230469-169.230469-169.230469zm0 0" fill="#007aa0"/><path d="m223.484375 119.785156v338.460938c93.3125 0 169.230469-75.917969 169.230469-169.230469s-75.917969-169.230469-169.230469-169.230469zm0 0" fill="#005f7e"/><path d="m312.007812 289.015625c0-8.808594 7.140626-15.949219 15.949219-15.949219h64c-7.570312-80.609375-71.914062-144.953125-152.523437-152.523437v64c0 8.804687-7.140625 15.945312-15.949219 15.945312s-15.949219-7.140625-15.949219-15.945312v-64c-80.609375 7.570312-144.953125 71.914062-152.527344 152.523437h64.003907c8.804687 0 15.945312 7.140625 15.945312 15.949219s-7.140625 15.949219-15.945312 15.949219h-64.003907c7.570313 80.609375 71.914063 144.953125 152.527344 152.523437v-64c0-8.804687 7.140625-15.945312 15.949219-15.945312 8.804687 0 15.945313 7.140625 15.945313 15.945312v64c80.613281-7.570312 144.957031-71.914062 152.527343-152.523437h-64c-8.808593 0-15.949219-7.140625-15.949219-15.949219zm0 0" fill="#f2f8f9"/><path d="m327.957031 304.964844c-8.808593 0-15.949219-7.140625-15.949219-15.949219s7.140626-15.949219 15.949219-15.949219h64c-7.570312-80.609375-71.914062-144.953125-152.523437-152.523437v64c0 8.804687-7.140625 15.945312-15.949219 15.945312v177.054688c8.808594 0 15.949219 7.140625 15.949219 15.949219v64c80.609375-7.574219 144.953125-71.917969 152.523437-152.527344zm0 0" fill="#cfdde1"/><path d="m254.496094 308.75-50.746094-50.746094c-1.847656-1.847656-4.484375-2.671875-7.054688-2.207031-2.570312.460937-4.75 2.15625-5.835937 4.53125l-42.726563 93.46875c-1.382812 3.027344-.738281 6.597656 1.613282 8.953125 1.53125 1.527344 3.570312 2.335938 5.640625 2.335938 1.121093 0 2.25-.238282 3.3125-.722657l93.46875-42.722656c2.378906-1.085937 4.070312-3.265625 4.535156-5.839844.464844-2.566406-.363281-5.203125-2.207031-7.050781zm0 0" fill="#007aa0"/><path d="m254.496094 308.75-31.011719-31.011719v57.015625l28.6875-13.113281c2.375-1.085937 4.070313-3.265625 4.53125-5.835937.464844-2.570313-.363281-5.207032-2.207031-7.054688zm0 0" fill="#005f7e"/><path d="m256.109375 317.703125 42.722656-93.46875c1.386719-3.03125.742188-6.597656-1.613281-8.953125s-5.925781-3-8.953125-1.613281l-93.46875 42.722656c-.875.402344-1.660156.953125-2.320313 1.617187l62.015626 62.015626c.664062-.660157 1.214843-1.441407 1.617187-2.320313zm0 0" fill="#ff5b5b"/><path d="m297.21875 215.28125c-2.355469-2.355469-5.925781-3-8.953125-1.613281l-64.78125 29.609375v45.738281l31.007813 31.011719c.664062-.664063 1.214843-1.445313 1.617187-2.324219l42.722656-93.46875c1.382813-3.027344.742188-6.597656-1.613281-8.953125zm0 0" fill="#ff2323"/></svg>