<svg height="512pt" viewBox="0 0 512 512" width="512pt" xmlns="http://www.w3.org/2000/svg"><path d="m326.5 75h90v90h-90zm0 0" fill="#4d515b"/><path d="m487 374v-239h-231l-171 239zm0 0" fill="#3a3d44"/><path d="m25 135h231v239h-231zm0 0" fill="#4d515b"/><path d="m256 314-60 153 316-90-25-63zm0 0" fill="#626a7c"/><path d="m256 314h-231l-25 63 256 90zm0 0" fill="#77839d"/><path d="m256 512h256v-135h-256l-60 67.5zm0 0" fill="#3a3d44"/><path d="m0 377h256v135h-256zm0 0" fill="#4d515b"/><path d="m392 437h-136l-40 15 40 15h136zm0 0" fill="#4d515b"/><path d="m60 437h196v30h-196zm0 0" fill="#626a7c"/><path d="m422 437h30v30h-30zm0 0" fill="#4d515b"/><path d="m85 75h126v195h-126zm0 0" fill="#fff1a0"/><path d="m256 0h231v105h-231zm0 0" fill="#3a3d44"/><path d="m286 30h171v45h-171zm0 0" fill="#54ecd3"/></svg>