<svg height="512pt" viewBox="0 -25 512 512" width="512pt" xmlns="http://www.w3.org/2000/svg"><path d="m241 0h217.402344v108.207031h-217.402344zm0 0" fill="#ffe07f"/><path d="m335.863281 0h122.539063v108.207031h-122.539063zm0 0" fill="#ffd23a"/><path d="m458.402344 86.28125h-404.804688l-53.597656 280.347656h512zm0 0" fill="#1d608b"/><path d="m335.863281 366.628906h176.136719l-53.597656-280.347656h-122.539063zm0 0" fill="#0d3954"/><path d="m256 154.800781h40v40h-40zm0 0" fill="#61e87b"/><path d="m315.863281 154.800781h40v40h-40zm0 0" fill="#61e87b"/><path d="m335.863281 154.800781h20v40h-20zm0 0" fill="#31c269"/><path d="m375.726562 154.800781h40v40h-40zm0 0" fill="#31c269"/><path d="m256 274.53125h40v40h-40zm0 0" fill="#61e87b"/><path d="m315.863281 274.53125h40v40h-40zm0 0" fill="#61e87b"/><path d="m335.863281 274.53125h20v40h-20zm0 0" fill="#31c269"/><path d="m375.726562 274.53125h40v40h-40zm0 0" fill="#31c269"/><path d="m256 214.664062h40v40h-40zm0 0" fill="#61e87b"/><path d="m315.863281 214.664062h40v40h-40zm0 0" fill="#61e87b"/><path d="m335.863281 214.664062h20v40h-20zm0 0" fill="#31c269"/><path d="m375.726562 214.664062h40v40h-40zm0 0" fill="#31c269"/><path d="m91.925781 0h137.429688v202.554688h-137.429688zm0 0" fill="#deecf1"/><path d="m0 366.628906h512v94.371094h-512zm0 0" fill="#0d3954"/><path d="m335.863281 366.628906h176.136719v94.371094h-176.136719zm0 0" fill="#07283e"/></svg>