<?xml version="1.0" encoding="iso-8859-1"?>
<!-- Generator: Adobe Illustrator 19.0.0, SVG Export Plug-In . SVG Version: 6.00 Build 0)  -->
<svg version="1.1" id="Capa_1" xmlns="http://www.w3.org/2000/svg" xmlns:xlink="http://www.w3.org/1999/xlink" x="0px" y="0px"
	 viewBox="0 0 512 512" style="enable-background:new 0 0 512 512;" xml:space="preserve">
<rect x="307.2" y="89.6" style="fill:#87CDE8;" width="51.2" height="42.667"/>
<path style="fill:#195C85;" d="M452.267,371.2h17.067V174.933c-0.026-23.552-19.115-42.641-42.667-42.667H187.733v119.467h25.6
	V268.8H76.8v-17.067h25.6V132.267H85.333c-23.552,0.026-42.641,19.115-42.667,42.667V371.2H452.267z M358.4,192h51.2v51.2h-51.2V192
	z M358.4,277.333h51.2v51.2h-51.2V277.333z M273.067,192h51.2v51.2h-51.2V192z M273.067,277.333h51.2v51.2h-51.2V277.333z
	 M162.133,285.867h34.133v17.067h-34.133V285.867z M162.133,320h34.133v17.067h-34.133V320z M93.867,285.867H128v17.067H93.867
	V285.867z M93.867,320H128v17.067H93.867V320z"/>
<path style="fill:#F49E21;" d="M435.2,89.6V4.267H221.867V89.6H435.2z M401.067,29.867h17.067V64h-17.067V29.867z"/>
<polygon style="fill:#FDBD40;" points="102.4,251.733 110.933,251.733 179.2,251.733 187.733,251.733 187.733,140.8 
	187.733,132.267 187.733,55.467 102.4,55.467 102.4,132.267 102.4,140.8 "/>
<polygon style="fill:#87CDE8;" points="110.933,251.733 102.4,251.733 76.8,251.733 76.8,268.8 102.4,268.8 187.733,268.8 
	213.333,268.8 213.333,251.733 187.733,251.733 179.2,251.733 "/>
<g>
	<rect x="358.4" y="192" style="fill:#FFD782;" width="51.2" height="51.2"/>
	<rect x="273.067" y="192" style="fill:#FFD782;" width="51.2" height="51.2"/>
	<rect x="358.4" y="277.333" style="fill:#FFD782;" width="51.2" height="51.2"/>
	<rect x="273.067" y="277.333" style="fill:#FFD782;" width="51.2" height="51.2"/>
</g>
<rect x="401.067" y="29.867" style="fill:#FFFFFF;" width="17.067" height="34.133"/>
<g>
	<rect x="93.867" y="285.867" style="fill:#FFD782;" width="34.133" height="17.067"/>
	<rect x="162.133" y="285.867" style="fill:#FFD782;" width="34.133" height="17.067"/>
	<rect x="93.867" y="320" style="fill:#FFD782;" width="34.133" height="17.067"/>
	<rect x="162.133" y="320" style="fill:#FFD782;" width="34.133" height="17.067"/>
</g>
<path style="fill:#87CEE9;" d="M503.467,371.2H8.533c-4.71,0-8.533,3.823-8.533,8.533V499.2c0,4.71,3.823,8.533,8.533,8.533h494.933
	c4.71,0,8.533-3.823,8.533-8.533V379.733C512,375.023,508.177,371.2,503.467,371.2z M256,413.867c14.14,0,25.6,11.46,25.6,25.6
	c0,14.14-11.46,25.6-25.6,25.6c-14.14,0-25.6-11.46-25.6-25.6C230.4,425.327,241.86,413.867,256,413.867z"/>
<circle style="fill:#FFFFFF;" cx="256" cy="439.467" r="25.6"/>
<g>
</g>
<g>
</g>
<g>
</g>
<g>
</g>
<g>
</g>
<g>
</g>
<g>
</g>
<g>
</g>
<g>
</g>
<g>
</g>
<g>
</g>
<g>
</g>
<g>
</g>
<g>
</g>
<g>
</g>
</svg>
