<svg height="465pt" viewBox="0 -11 465.792 465" width="465pt" xmlns="http://www.w3.org/2000/svg"><path d="m7 317.160156h451.792969v120.078125h-451.792969zm0 0" fill="#4e7693"/><path d="m420.496094 246.910156h-375.199219l11.8125-77.484375h351.574219zm0 0" fill="#4e7693"/><path d="m420.496094 246.910156h-375.199219l-38.296875 70.25h451.792969zm0 0" fill="#e3f4ff"/><path d="m148.121094 276.039062h-34.457032c-3.867187 0-7-3.132812-7-7 0-3.863281 3.132813-7 7-7h34.453126c3.863281 0 7 3.136719 7 7 0 3.867188-3.136719 7-7 7zm80.773437-7c0-3.863281-3.132812-7-7-7h-34.464843c-3.867188 0-7 3.136719-7 7 0 3.867188 3.132812 7 7 7h34.453124c1.859376.003907 3.644532-.730468 4.957032-2.046874 1.316406-1.3125 2.054687-3.09375 2.054687-4.953126zm73.761719 0c0-3.863281-3.132812-7-7-7h-34.46875c-3.867188 0-7 3.136719-7 7 0 3.867188 3.132812 7 7 7h34.457031c3.867188 0 7-3.132812 7-7zm73.757812 0c0-3.863281-3.132812-7-7-7h-34.457031c-3.867187 0-7 3.136719-7 7 0 3.867188 3.132813 7 7 7h34.449219c3.867188 0 7-3.132812 7-7zm-254.167968 24.078126c0-3.867188-3.132813-7-7-7h-34.449219c-3.867187 0-7 3.132812-7 7 0 3.863281 3.132813 7 7 7h34.449219c3.867187 0 7-3.136719 7-7zm73.765625 0c0-3.867188-3.132813-7-7-7h-34.457031c-3.863282 0-7 3.132812-7 7 0 3.863281 3.136718 7 7 7h34.457031c3.867187 0 7-3.136719 7-7zm73.761719 0c0-3.867188-3.136719-7-7-7h-34.457032c-3.867187 0-7 3.132812-7 7 0 3.863281 3.132813 7 7 7h34.460938c3.863281 0 7-3.136719 7-7zm73.757812 0c0-3.867188-3.132812-7-7-7h-34.433594c-3.867187 0-7 3.132812-7 7 0 3.863281 3.132813 7 7 7h34.4375c3.867188 0 7-3.136719 7-7zm73.765625 0c0-3.867188-3.136719-7-7-7h-34.453125c-3.867188 0-7 3.132812-7 7 0 3.863281 3.132812 7 7 7h34.457031c3.863281-.003907 6.996094-3.136719 6.996094-7zm0 0" fill="#bbd8ef"/><path d="m438.570312 317.160156h20.222657v120.078125h-20.222657zm0 0" fill="#2c5168"/><path d="m408.683594 169.425781h-20.21875l11.8125 77.484375h20.21875zm0 0" fill="#2c5168"/><path d="m420.496094 246.910156h-20.21875l38.292968 70.25h20.222657zm0 0" fill="#bbd8ef"/><path d="m296.117188 359.769531h-126.441407l-17.125-42.609375h160.6875zm0 0" fill="#2c5168"/><path d="m272.617188 136.132812h114.933593v33.292969h-114.933593zm0 0" fill="#2c5168"/><path d="m376.964844 194.078125h-93.769532l-2.910156 28.175781h99.59375zm0 0" fill="#43a3f9"/><path d="m252.414062 7.390625h155.332032v79.007813h-155.332032zm0 0" fill="#4e7693"/><path d="m396.65625 7.390625h11.085938v79.007813h-11.085938zm0 0" fill="#2c5168"/><path d="m274.238281 27.300781h111.6875v39.191407h-111.6875zm0 0" fill="#43a3f9"/><path d="m309.230469 86.402344h41.707031v49.730468h-41.707031zm0 0" fill="#4e7693"/><path d="m309.230469 86.402344h41.707031v10.546875h-41.707031zm0 0" fill="#2c5168"/><path d="m341.601562 86.402344h9.335938v49.730468h-9.335938zm0 0" fill="#2c5168"/><path d="m60.914062 124.195312h45.78125v-22.890624c0-12.640626-10.246093-22.890626-22.886718-22.890626s-22.886719 10.25-22.886719 22.890626zm0 0" fill="#e3f4ff"/><path d="m60.914062 124.195312h45.78125v-22.890624c0-12.640626-10.246093-22.890626-22.886718-22.890626s-22.886719 10.25-22.886719 22.890626zm0 0" fill="#e3f4ff"/><path d="m106.695312 101.304688v109.410156h119.078126v-109.300782c0-12.699218-10.300782-23-23-23h-118.96875c12.640624 0 22.890624 10.246094 22.890624 22.890626zm0 0" fill="#e3f4ff"/><path d="m96.148438 101.304688v22.890624h10.546874v-22.890624c.03125-7.007813-3.164062-13.640626-8.664062-17.984376-5.496094-4.347656-12.6875-5.921874-19.5-4.273437 10.320312 2.441406 17.613281 11.652344 17.617188 22.257813zm0 0" fill="#bbd8ef"/><path d="m202.773438 78.414062h-11.9375c12.703124 0 23 10.300782 23 23v109.300782h11.941406v-109.300782c0-12.703124-10.300782-23-23.003906-23zm0 0" fill="#bbd8ef"/><g fill="#94ccf7"><path d="m371.175781 66.496094 14.75-30.539063v-8.65625h-4.929687l-18.929688 39.195313zm0 0"/><path d="m338.207031 66.496094h13.746094l18.925781-39.195313h-13.742187zm0 0"/><path d="m285.53125 27.300781-11.292969 23.382813v15.8125h10.578125l18.925782-39.195313zm0 0"/><path d="m328.015625 27.300781h-9.109375l-18.921875 39.195313h9.105469zm0 0"/><path d="m370.777344 222.253906 7.496094-15.527344-1.308594-12.648437h-.644532l-13.605468 28.175781zm0 0"/><path d="m341.601562 222.253906h12.160157l13.605469-28.175781h-12.164063zm0 0"/><path d="m329.433594 194.078125h-8.0625l-13.601563 28.175781h8.058594zm0 0"/><path d="m291.832031 194.078125-10.988281 22.757813-.558594 5.417968h14.0625l13.605469-28.175781zm0 0"/></g><path d="m7 444.234375h451.792969c3.863281 0 7-3.132813 7-7v-120.074219c-.003907-.523437-.066407-1.042968-.183594-1.550781-.03125-.125-.082031-.246094-.117187-.371094-.117188-.410156-.269532-.8125-.460938-1.199219-.039062-.074218-.050781-.164062-.089844-.238281l-6.09375-11.199219c-1.851562-3.398437-6.101562-4.648437-9.496094-2.800781-3.398437 1.851563-4.648437 6.105469-2.800781 9.5l.457031.835938h-428.214843l30.65625-56.222657h366.894531l8.148438 14.941407c1.171874 2.242187 3.464843 3.679687 5.992187 3.753906 2.53125.078125 4.902344-1.21875 6.207031-3.386719 1.304688-2.167968 1.339844-4.871094.089844-7.070312l-9.546875-17.507813-11.597656-76.269531c-.523438-3.417969-3.464844-5.941406-6.921875-5.941406h-14.148438v-26.300782c0-3.867187-3.132812-7-7-7h-29.597656v-35.734374h49.816406c3.863282 0 7-3.132813 7-7v-79.003907c0-3.863281-3.136718-7-7-7h-155.371094c-3.863281 0-7 3.136719-7 7v79.003907c0 3.867187 3.136719 7 7 7h49.816407v5.203124c0 3.863282 3.136719 7 7 7 3.867187 0 7-3.136718 7-7v-5.203124h27.703125v35.71875h-27.703125v-9.902344c0-3.863282-3.132813-7-7-7-3.863281 0-7 3.136718-7 7v9.902344h-29.597657c-3.867187 0-7 3.132812-7 7v26.320312h-32.855468v-61.042969c-.023438-16.550781-13.449219-29.957031-30-29.957031h-31.601563c-3.867187 0-7 3.132812-7 7 0 3.863281 3.132813 7 7 7h31.601563c8.820312 0 15.976562 7.136719 16 15.957031v102.320313h-105.082032v-102.398438c-.007812-1.285156-.101562-2.566406-.273437-3.835937-.046875-.347657-.101563-.6875-.15625-1.03125-.167969-1.015625-.386719-2.019531-.65625-3.011719-.066406-.234375-.113281-.472656-.179687-.707031-.355469-1.167969-.777344-2.316407-1.273438-3.433594-.117188-.265625-.253906-.515625-.375-.777344-.421875-.882812-.882812-1.738281-1.382812-2.566406-.097657-.167969-.171876-.351563-.273438-.515625h36.800781c3.863281 0 7-3.136719 7-7 0-3.867188-3.136719-7-7-7h-62.109375c-7.929687-.023438-15.542968 3.121094-21.152344 8.726562-5.609374 5.609376-8.75 13.222657-8.730468 21.152344v22.878906c0 3.867188 3.132812 7 7 7h38.761718v31.242188h-42.597656c-3.460937 0-6.398437 2.523438-6.921875 5.941406l-11.601562 76.269532-37.71875 69.164062c-.035157.066406-.046875.148438-.082031.214844-.199219.394531-.359376.808594-.476563 1.238281-.03125.113281-.082031.222656-.105469.339844-.1210935.507812-.1835935 1.03125-.18749975 1.554687v54.5625c0 3.867188 3.13281275 7 6.99999975 7 3.867188 0 7-3.132812 7-7v-47.5625h133.816406l15.355469 38.214844c1.0625 2.65625 3.636719 4.398438 6.496094 4.402344h126.449219c2.859375-.003906 5.433594-1.746094 6.496094-4.402344l15.355468-38.214844h133.820313v106.078125h-437.792969v-37.664062c0-3.863281-3.132812-7-7-7s-7 3.136719-7 7v44.660156c0 3.867187 3.132812 7 7 7zm302.230469-364.835937h-49.816407v-65.003907h141.332032v65.003907zm-29.613281 63.71875h100.929687v19.289062h-100.929687zm-211.679688-25.921876v-15.878906c0-8.769531 7.109375-15.878906 15.878906-15.878906 8.769532 0 15.878906 7.109375 15.878906 15.878906v15.878906zm-4.824219 59.242188h36.582031v27.277344h-8.597656c-3.867187 0-7 3.136718-7 7 0 3.867187 3.132813 7 7 7h150.277344c3.867188 0 7-3.132813 7-7 0-3.863282-3.132812-7-7-7h-8.597656v-27.277344h169.90625l9.664062 63.476562h-358.902344zm228.273438 176.332031h-116.984375l-11.507813-28.609375h140zm154.402343-74.105469 2.976563 5.460938c1.25 2.199219 1.214844 4.902344-.089844 7.070312-1.304687 2.167969-3.675781 3.460938-6.207031 3.386719-2.527344-.078125-4.820312-1.511719-5.992188-3.753906l-2.976562-5.460937c-1.25-2.199219-1.21875-4.902344.085938-7.070313 1.304687-2.167969 3.679687-3.460937 6.210937-3.386719 2.527344.078125 4.820313 1.511719 5.992187 3.753906zm-165.503906-49.410156h99.597656c1.984376 0 3.871094-.839844 5.199219-2.3125s1.96875-3.4375 1.761719-5.410156l-2.914062-28.171875c-.367188-3.566406-3.375-6.28125-6.960938-6.28125h-93.773438c-3.585937 0-6.59375 2.714844-6.960937 6.28125l-2.914063 28.15625c-.207031 1.972656.433594 3.9375 1.761719 5.410156 1.328125 1.46875 3.214844 2.3125 5.199219 2.308594zm9.226563-28.175781h81.140625l1.464844 14.175781h-84.074219zm103.417969-134.585937v-39.199219c0-3.867188-3.136719-7-7-7h-111.691407c-3.863281 0-7 3.132812-7 7v39.199219c0 3.867187 3.136719 7 7 7h111.6875c3.863281 0 7-3.132813 7-7zm-14-7h-97.691407v-25.175782h97.6875zm-239.449219 216.546874h-34.457031c-3.867188 0-7-3.132812-7-7 0-3.863281 3.132812-7 7-7h34.453124c3.867188 0 7 3.136719 7 7 0 3.867188-3.132812 7-7 7zm73.761719 0h-34.453126c-3.867187 0-7-3.132812-7-7 0-3.863281 3.132813-7 7-7h34.453126c3.867187 0 7 3.136719 7 7 0 3.867188-3.132813 7-7 7zm73.761718 0h-34.457031c-3.863281 0-7-3.132812-7-7 0-3.863281 3.136719-7 7-7h34.457031c3.867188 0 7 3.136719 7 7 0 3.867188-3.132812 7-7 7zm73.761719 0h-34.453125c-3.867188 0-7-3.132812-7-7 0-3.863281 3.132812-7 7-7h34.453125c3.863281 0 7 3.136719 7 7 0 3.867188-3.136719 7-7 7zm-254.160156 10.0625c3.863281 0 7 3.132813 7 7 0 3.863282-3.136719 7-7 7h-34.453125c-3.867188 0-7-3.136718-7-7 0-3.867187 3.132812-7 7-7zm32.289062 7.015626c0-3.867188 3.136719-7 7-7h34.457031c3.867188 0 7 3.132812 7 7 0 3.863281-3.132812 7-7 7h-34.4375c-1.859374.003906-3.644531-.730469-4.960937-2.042969-1.316406-1.316407-2.058594-3.097657-2.058594-4.957031zm73.761719 0c0-3.867188 3.132812-7 7-7h34.480469c3.867187 0 7 3.132812 7 7 0 3.863281-3.132813 7-7 7h-34.441407c-1.859374.003906-3.644531-.730469-4.960937-2.042969-1.316406-1.316407-2.058594-3.097657-2.058594-4.957031zm73.765625 0c0-3.867188 3.132813-7 7-7h34.472656c3.867188 0 7 3.132812 7 7 0 3.863281-3.132812 7-7 7h-34.449219c-3.867187 0-7-3.136719-7-7zm73.757813 0c0-3.867188 3.132812-7 7-7h34.457031c3.867187 0 7 3.132812 7 7 0 3.863281-3.132813 7-7 7h-34.433594c-3.863281 0-7-3.136719-7-7zm0 0" fill="#202e35"/></svg>