<svg height="512pt" viewBox="-66 0 512 512.00102" width="512pt" xmlns="http://www.w3.org/2000/svg"><path d="m97.199219 421.453125h-46.070313c-28.191406 0-51.128906-22.9375-51.128906-51.128906v-57.550781c0-28.191407 22.9375-51.128907 51.128906-51.128907h46.070313c8.472656 0 15.34375 6.871094 15.34375 15.347657v129.113281c0 8.476562-6.867188 15.347656-15.34375 15.347656zm-46.070313-129.113281c-11.269531 0-20.433594 9.167968-20.433594 20.433594v57.550781c0 11.269531 9.164063 20.4375 20.433594 20.4375h30.722656v-98.421875zm0 0" fill="#cfdde1"/><path d="m348.917969 213.273438h-251.71875c-8.476563 0-15.347657 6.871093-15.347657 15.347656v214.976562c0 37.71875 30.6875 68.402344 68.40625 68.402344h145.601563c37.71875 0 68.402344-30.683594 68.402344-68.402344v-214.976562c0-8.476563-6.871094-15.347656-15.34375-15.347656zm0 0" fill="#007aa0"/><path d="m348.917969 213.273438h-126.945313v298.726562h73.886719c37.71875 0 68.402344-30.6875 68.402344-68.40625v-214.972656c0-8.476563-6.871094-15.347656-15.34375-15.347656zm0 0" fill="#005f7e"/><path d="m351.347656 150.746094h-256.578125c-16.117187 0-29.230469 13.113281-29.230469 29.230468v19.414063c0 16.117187 13.113282 29.230469 29.230469 29.230469h256.578125c16.117188 0 29.230469-13.113282 29.230469-29.230469v-19.414063c0-16.117187-13.113281-29.230468-29.230469-29.230468zm0 0" fill="#cfdde1"/><path d="m351.347656 150.746094h-129.375v77.875h129.375c16.117188 0 29.230469-13.113282 29.230469-29.230469v-19.414063c0-16.117187-13.113281-29.230468-29.230469-29.230468zm0 0" fill="#b5c4cf"/><path d="m223.058594 124.503906c-8.476563 0-15.347656-6.871094-15.347656-15.34375v-93.8125c0-8.476562 6.871093-15.347656 15.347656-15.347656 8.476562 0 15.347656 6.871094 15.347656 15.347656v93.8125c0 8.472656-6.871094 15.34375-15.347656 15.34375zm0 0" fill="#ffdf45"/><path d="m147.308594 124.503906c-8.472656 0-15.34375-6.871094-15.34375-15.34375v-62.328125c0-8.476562 6.871094-15.347656 15.34375-15.347656 8.476562 0 15.347656 6.871094 15.347656 15.347656v62.328125c0 8.472656-6.871094 15.34375-15.347656 15.34375zm0 0" fill="#ffdf45"/><g fill="#ffa100"><path d="m298.804688 124.503906c-8.472657 0-15.34375-6.871094-15.34375-15.34375v-62.328125c0-8.476562 6.871093-15.347656 15.34375-15.347656 8.476562 0 15.347656 6.871094 15.347656 15.347656v62.328125c0 8.472656-6.871094 15.34375-15.347656 15.34375zm0 0"/><path d="m238.40625 109.160156v-93.8125c0-8.476562-6.871094-15.347656-15.347656-15.347656-.367188 0-.726563.03125-1.085938.0546875v124.3945315c.359375.027343.71875.054687 1.085938.054687 8.476562 0 15.347656-6.871094 15.347656-15.34375zm0 0"/></g></svg>