<svg height="512pt" viewBox="0 -63 512 511" width="512pt" xmlns="http://www.w3.org/2000/svg"><path d="m332.742188 29.023438c0 15.753906-12.769532 28.523437-28.519532 28.523437-15.753906 0-28.523437-12.769531-28.523437-28.523437 0-15.753907 12.769531-28.523438 28.523437-28.523438 15.75 0 28.519532 12.769531 28.519532 28.523438zm0 0" fill="#484a4c"/><path d="m332.746094 29.027344c0 15.75-12.773438 28.519531-28.523438 28.519531-12.191406 0-22.597656-7.644531-26.679687-18.410156 4.585937 3.152343 10.140625 4.992187 16.117187 4.992187 15.753906 0 28.523438-12.777344 28.523438-28.527344 0-3.5625-.648438-6.972656-1.84375-10.109374 7.492187 5.140624 12.40625 13.761718 12.40625 23.535156zm0 0" fill="#444"/><path d="m487.242188 231.328125c0-101.078125-81.941407-183.019531-183.023438-183.019531-101.078125 0-183.023438 81.941406-183.023438 183.019531v28.832031h366.050782v-28.832031zm0 0" fill="#bfbfbf"/><path d="m487.25 231.335938h-35.773438c0-95.054688-72.449218-173.175782-165.140624-182.15625 5.882812-.574219 11.851562-.871094 17.886718-.871094 101.078125 0 183.027344 81.9375 183.027344 183.027344zm0 0" fill="#acacac"/><path d="m500.398438 308.199219h-392.359376c-6.402343 0-11.597656-5.191407-11.597656-11.597657v-53.671874c0-6.40625 5.191406-11.601563 11.597656-11.601563h392.359376c6.40625 0 11.601562 5.195313 11.601562 11.601563v53.671874c0 6.40625-5.191406 11.597657-11.601562 11.597657zm0 0" fill="#9c9c9c"/><path d="m500.398438 308.199219h-20.40625v-76.871094h20.40625c6.40625 0 11.601562 5.195313 11.601562 11.601563v53.671874c0 6.40625-5.191406 11.597657-11.601562 11.597657zm0 0" fill="#838383"/><path d="m384.597656 286.480469c-5.949218-7.097657-15.777344-9.582031-24.382812-6.15625-11.753906 4.675781-23.757813 8.964843-35.332032 14.054687-8.324218 3.660156-61.613281 25.527344-57.234374-.824218 2.378906-14.292969 27.71875-15.226563 17.734374-34.207032-3.933593-7.457031-12.578124-11.113281-20.667968-8.734375l-64.117188 18.855469c-11.546875 3.394531-23.519531 5.117188-35.554687 5.117188h-13.199219v-.03125h-13.964844v84.804687s13.96875-.023437 13.96875-.023437c34.40625 26.035156 82.332032 28.828124 123.28125 23.050781 42.527344-6.003907 79.167969-36.894531 108.449219-67.203125 7.632813-7.902344 8.074219-20.285156 1.019531-28.703125zm0 0" fill="#fed2a4"/><path d="m383.582031 315.183594c-29.285156 30.308594-65.925781 61.195312-108.449219 67.199218-40.949218 5.785157-88.875 2.984376-123.285156-23.042968 0 0 0-12.660156 0-28.179688 34.410156 26.039063 82.335938 28.828125 123.285156 23.054688 42.523438-6.003906 79.164063-36.890625 108.449219-67.210938.257813-.269531.507813-.546875.746094-.828125.09375.09375.183594.195313.269531.300781 7.054688 8.421876 6.613282 20.800782-1.015625 28.707032zm0 0" fill="#ffbd86"/><path d="m147.902344 367.796875h-30.734375v-98.101563h30.734375c2.179687 0 3.941406 1.765626 3.941406 3.941407v90.21875c.003906 2.175781-1.761719 3.941406-3.941406 3.941406zm0 0" fill="#e7e7e7"/><path d="m147.902344 367.796875h-30.734375v-36.136719h34.679687v32.195313c0 2.175781-1.765625 3.941406-3.945312 3.941406zm0 0" fill="#cecece"/><path d="m119.796875 377.328125h-115.679687c-2.273438 0-4.117188-1.84375-4.117188-4.117187v-108.929688c0-2.277344 1.84375-4.121094 4.117188-4.121094h115.679687c2.273437 0 4.117187 1.84375 4.117187 4.121094v108.929688c0 2.273437-1.84375 4.117187-4.117187 4.117187zm0 0" fill="#f6ac39"/><path d="m119.796875 377.328125h-115.679687c-2.273438 0-4.117188-1.84375-4.117188-4.117187v-37.078126h123.914062v37.078126c0 2.273437-1.84375 4.117187-4.117187 4.117187zm0 0" fill="#f39d0a"/></svg>