<?xml version="1.0" encoding="iso-8859-1"?>
<!-- Generator: Adobe Illustrator 21.0.0, SVG Export Plug-In . SVG Version: 6.00 Build 0)  -->
<svg version="1.1" id="Capa_1" xmlns="http://www.w3.org/2000/svg" xmlns:xlink="http://www.w3.org/1999/xlink" x="0px" y="0px"
	 viewBox="0 0 512 512" style="enable-background:new 0 0 512 512;" xml:space="preserve">
<path style="fill:#FEB03B;" d="M512,256c0,40.625-9.403,79.813-27.175,115.062c-4.421,8.783-9.364,17.31-14.809,25.561
	c-9.492,14.395-20.519,27.924-32.994,40.399c-12.475,12.475-26.014,23.503-40.409,32.994c-8.251,5.455-16.778,10.388-25.551,14.818
	C335.813,502.597,296.625,512,256,512s-79.813-9.403-115.062-27.175c-8.773-4.421-17.3-9.354-25.551-14.809
	c-14.395-9.492-27.934-20.519-40.409-32.994s-23.503-26.004-32.994-40.399c-5.445-8.251-10.388-16.778-14.809-25.561
	C9.403,335.813,0,296.625,0,256s9.403-79.813,27.175-115.062c4.421-8.783,9.364-17.31,14.809-25.561
	c9.492-14.395,20.519-27.924,32.994-40.399s26.014-23.503,40.409-33.004c8.251-5.445,16.778-10.378,25.551-14.809
	C176.187,9.403,215.375,0,256,0s79.813,9.403,115.062,27.175c8.783,4.421,17.31,9.364,25.561,14.809
	c14.395,9.492,27.924,20.519,40.399,32.994c12.475,12.475,23.503,26.014,32.994,40.409c5.455,8.251,10.388,16.778,14.818,25.551
	C502.597,176.187,512,215.375,512,256z"/>
<g>
	<path style="fill:#DB891D;" d="M371.062,484.834c8.773-4.431,17.3-9.364,25.551-14.818c14.395-9.492,27.934-20.519,40.409-32.994
		s23.503-26.004,32.994-40.399c5.445-8.251,10.388-16.778,14.809-25.561C502.597,335.813,512,296.625,512,256
		s-9.403-79.813-27.166-115.062c-4.431-8.773-9.364-17.3-14.818-25.551c-9.492-14.395-20.519-27.934-32.994-40.409
		s-26.004-23.503-40.399-32.994c-8.251-5.445-16.778-10.388-25.561-14.809C335.813,9.403,296.625,0,256,0v512
		C296.625,512,335.813,502.597,371.062,484.834z"/>
	<path style="fill:#DB891D;" d="M184.615,132.362c-2.324,1.339-4.864,1.979-7.375,1.979c-5.1,0-10.063-2.649-12.8-7.385
		l-49.054-84.982c8.251-5.445,16.778-10.378,25.551-14.809l49.083,85.022C194.097,119.247,191.675,128.276,184.615,132.362z"/>
</g>
<path style="fill:#B56606;" d="M396.613,470.016c-8.251,5.455-16.778,10.388-25.551,14.818l-49.083-85.022
	c-4.076-7.06-1.654-16.089,5.406-20.175c7.06-4.076,16.098-1.654,20.175,5.406L396.613,470.016z"/>
<path style="fill:#DB891D;" d="M132.362,184.615c-2.737,4.736-7.7,7.385-12.81,7.385c-2.501,0-5.041-0.64-7.365-1.979
	l-85.012-49.083c4.421-8.783,9.364-17.31,14.809-25.561l84.972,49.063C134.016,168.517,136.438,177.556,132.362,184.615z"/>
<path style="fill:#B56606;" d="M484.825,371.062c-4.421,8.783-9.364,17.31-14.809,25.561l-84.972-49.063
	c-7.06-4.076-9.482-13.115-5.406-20.175c4.086-7.06,13.115-9.482,20.175-5.406L484.825,371.062z"/>
<path style="fill:#DB891D;" d="M126.956,347.559l-84.972,49.063c-5.445-8.251-10.388-16.778-14.809-25.561l85.012-49.083
	c7.06-4.076,16.089-1.654,20.175,5.406C136.438,334.444,134.016,343.483,126.956,347.559z"/>
<path style="fill:#B56606;" d="M484.834,140.938l-85.022,49.083c-2.324,1.339-4.864,1.979-7.365,1.979
	c-5.11,0-10.073-2.649-12.81-7.385c-4.076-7.06-1.654-16.098,5.406-20.175l84.972-49.054
	C475.471,123.638,480.404,132.165,484.834,140.938z"/>
<path style="fill:#DB891D;" d="M190.021,399.813l-49.083,85.012c-8.773-4.421-17.3-9.354-25.551-14.809l49.054-84.972
	c4.076-7.06,13.115-9.482,20.175-5.406C191.675,383.724,194.097,392.753,190.021,399.813z"/>
<path style="fill:#B56606;" d="M396.623,41.984l-49.063,84.972c-2.737,4.736-7.7,7.385-12.8,7.385c-2.511,0-5.051-0.64-7.375-1.979
	c-7.06-4.086-9.482-13.115-5.406-20.175l49.083-85.012C379.845,31.596,388.372,36.539,396.623,41.984z"/>
<path style="fill:#FEDB3F;" d="M256,83.692C160.99,83.692,83.692,160.99,83.692,256S160.99,428.308,256,428.308
	S428.308,351.01,428.308,256S351.01,83.692,256,83.692z"/>
<path style="fill:#E2BF29;" d="M428.308,256c0-95.01-77.297-172.308-172.308-172.308v344.615
	C351.01,428.308,428.308,351.01,428.308,256z"/>
<path style="fill:#FEB03B;" d="M295.385,280.615h-39.309c-0.026,0-0.05-0.004-0.076-0.004s-0.05,0.004-0.076,0.004h-19.617
	c-2.715,0-4.923-2.208-4.923-4.923v-29.538c0-8.144,6.625-14.769,14.769-14.769h49.231c8.157,0,14.769-6.613,14.769-14.769
	s-6.613-14.769-14.769-14.769h-24.615v-24.623c0-8.157-6.613-14.769-14.769-14.769s-14.769,6.613-14.769,14.769v24.903
	c-22.122,2.458-39.385,21.26-39.385,44.027v29.538c0,19.002,15.459,34.462,34.462,34.462h4.923v24.619
	c0,8.157,6.613,14.769,14.769,14.769s14.769-6.613,14.769-14.769v-24.618h24.615c8.157,0,14.769-6.613,14.769-14.769
	S303.541,280.615,295.385,280.615z"/>
<g>
	<path style="fill:#DB891D;" d="M295.385,231.385c8.157,0,14.769-6.613,14.769-14.769s-6.613-14.769-14.769-14.769h-24.615v-24.623
		c0-8.157-6.613-14.769-14.769-14.769v68.931H295.385z"/>
	<path style="fill:#DB891D;" d="M270.769,334.773v-24.619h24.615c8.157,0,14.769-6.613,14.769-14.769s-6.613-14.769-14.769-14.769
		h-39.309c-0.026,0-0.05-0.004-0.076-0.004v68.931C264.157,349.542,270.769,342.93,270.769,334.773z"/>
</g>
<g>
</g>
<g>
</g>
<g>
</g>
<g>
</g>
<g>
</g>
<g>
</g>
<g>
</g>
<g>
</g>
<g>
</g>
<g>
</g>
<g>
</g>
<g>
</g>
<g>
</g>
<g>
</g>
<g>
</g>
</svg>
