<?xml version="1.0" encoding="iso-8859-1"?>
<!-- Generator: Adobe Illustrator 21.0.0, SVG Export Plug-In . SVG Version: 6.00 Build 0)  -->
<svg version="1.1" id="Capa_1" xmlns="http://www.w3.org/2000/svg" xmlns:xlink="http://www.w3.org/1999/xlink" x="0px" y="0px"
	 viewBox="0 0 512 512" style="enable-background:new 0 0 512 512;" xml:space="preserve">
<path style="fill:#0051BF;" d="M196.923,388.923h-27.077v-44.308c0-8.157-6.613-14.769-14.769-14.769
	c-8.157,0-14.769,6.613-14.769,14.769v44.308h-22.154c-8.157,0-14.769,6.613-14.769,14.769c0,8.157,6.613,14.769,14.769,14.769
	h78.769c8.157,0,14.769-6.613,14.769-14.769C211.692,395.536,205.08,388.923,196.923,388.923z"/>
<path style="fill:#00429D;" d="M196.923,418.462c8.157,0,14.769-6.613,14.769-14.769c0-8.157-6.613-14.769-14.769-14.769h-27.077
	v-44.308c0-8.157-6.613-14.769-14.769-14.769v88.615H196.923z"/>
<path style="fill:#EDEEF0;" d="M265.846,152.615H44.308C19.876,152.615,0,172.492,0,196.923v118.154
	c0,24.431,19.876,44.308,44.308,44.308h221.538c24.431,0,44.308-19.876,44.308-44.308V196.923
	C310.154,172.492,290.277,152.615,265.846,152.615z"/>
<path style="fill:#D8D9DD;" d="M265.846,152.615H155.077v206.769h110.769c24.431,0,44.308-19.876,44.308-44.308V196.923
	C310.154,172.492,290.277,152.615,265.846,152.615z"/>
<path style="fill:#4895FF;" d="M467.692,93.538H384c-24.431,0-44.308,19.876-44.308,44.308v236.308
	c0,24.431,19.876,44.308,44.308,44.308h83.692c24.431,0,44.308-19.876,44.308-44.308V137.846
	C512,113.415,492.124,93.538,467.692,93.538z"/>
<path style="fill:#046EFF;" d="M467.692,93.538h-41.846v324.923h41.846c24.431,0,44.308-19.876,44.308-44.308V137.846
	C512,113.415,492.124,93.538,467.692,93.538z"/>
<path style="fill:#FEDB3F;" d="M452.923,182.154h-19.692c-8.157,0-14.769-6.613-14.769-14.769s6.613-14.769,14.769-14.769h19.692
	c8.157,0,14.769,6.613,14.769,14.769S461.08,182.154,452.923,182.154z"/>
<path style="fill:#E2BF29;" d="M452.923,152.615h-19.692c-2.693,0-5.211,0.733-7.385,1.992v25.555
	c2.174,1.259,4.692,1.992,7.385,1.992h19.692c8.157,0,14.769-6.613,14.769-14.769S461.08,152.615,452.923,152.615z"/>
<path style="fill:#FEB03B;" d="M393.846,310.146h59.077c8.157,0,14.769-6.613,14.769-14.769s-6.613-14.769-14.769-14.769h-59.077
	c-8.157,0-14.769,6.613-14.769,14.769S385.69,310.146,393.846,310.146z"/>
<path style="fill:#DB891D;" d="M452.923,280.608h-27.077v29.538h27.077c8.157,0,14.769-6.613,14.769-14.769
	S461.08,280.608,452.923,280.608z"/>
<path style="fill:#FEB03B;" d="M452.923,339.684h-59.077c-8.157,0-14.769,6.613-14.769,14.769s6.613,14.769,14.769,14.769h59.077
	c8.157,0,14.769-6.613,14.769-14.769S461.08,339.684,452.923,339.684z"/>
<path style="fill:#DB891D;" d="M452.923,339.684h-27.077v29.538h27.077c8.157,0,14.769-6.613,14.769-14.769
	S461.08,339.684,452.923,339.684z"/>
<g>
</g>
<g>
</g>
<g>
</g>
<g>
</g>
<g>
</g>
<g>
</g>
<g>
</g>
<g>
</g>
<g>
</g>
<g>
</g>
<g>
</g>
<g>
</g>
<g>
</g>
<g>
</g>
<g>
</g>
</svg>
