<?xml version="1.0" encoding="iso-8859-1"?>
<!-- Generator: Adobe Illustrator 21.0.0, SVG Export Plug-In . SVG Version: 6.00 Build 0)  -->
<svg version="1.1" id="Capa_1" xmlns="http://www.w3.org/2000/svg" xmlns:xlink="http://www.w3.org/1999/xlink" x="0px" y="0px"
	 viewBox="0 0 512 512" style="enable-background:new 0 0 512 512;" xml:space="preserve">
<path style="fill:#0051BF;" d="M338.019,420.039h-24.854v-84.505c0-8.236-6.677-14.913-14.913-14.913h-79.534
	c-8.236,0-14.913,6.677-14.913,14.913v84.505h-24.854c-8.236,0-14.913,6.677-14.913,14.913c0,8.236,6.677,14.913,14.913,14.913
	h39.767h79.534h39.767c8.236,0,14.913-6.677,14.913-14.913C352.932,426.716,346.255,420.039,338.019,420.039z"/>
<path style="fill:#00429D;" d="M338.019,420.039h-24.854v-84.505c0-8.236-6.677-14.913-14.913-14.913H256v99.417v29.825h42.252
	h39.767c8.236,0,14.913-6.677,14.913-14.913C352.932,426.716,346.255,420.039,338.019,420.039z"/>
<path style="fill:#4895FF;" d="M467.262,62.136H44.738C20.069,62.136,0,82.205,0,106.874v198.835
	c0,24.668,20.069,44.738,44.738,44.738h422.524c24.668,0,44.738-20.069,44.738-44.738V106.874
	C512,82.205,491.931,62.136,467.262,62.136z"/>
<path style="fill:#046EFF;" d="M467.262,62.136H256v288.311h211.262c24.668,0,44.738-20.069,44.738-44.738V106.874
	C512,82.205,491.931,62.136,467.262,62.136z"/>
<path style="fill:#EDEEF0;" d="M447.379,111.845H64.621c-8.236,0-14.913,6.677-14.913,14.913v159.068
	c0,8.236,6.677,14.913,14.913,14.913h382.757c8.236,0,14.913-6.677,14.913-14.913V126.757
	C462.291,118.522,455.614,111.845,447.379,111.845z"/>
<path style="fill:#D8D9DD;" d="M447.379,111.845H256v188.893h191.379c8.236,0,14.913-6.677,14.913-14.913V126.757
	C462.291,118.522,455.614,111.845,447.379,111.845z"/>
<g>
</g>
<g>
</g>
<g>
</g>
<g>
</g>
<g>
</g>
<g>
</g>
<g>
</g>
<g>
</g>
<g>
</g>
<g>
</g>
<g>
</g>
<g>
</g>
<g>
</g>
<g>
</g>
<g>
</g>
</svg>
