<svg height="512pt" viewBox="-81 0 512 512" width="512pt" xmlns="http://www.w3.org/2000/svg"><path d="m314.203125 139.832031 33.394531-43.550781c3.640625-4.75 4.269532-11.152344 1.621094-16.519531-2.648438-5.367188-8.113281-8.761719-14.097656-8.761719h-136.34375c-8.679688 0-15.71875 7.035156-15.71875 15.71875v106.230469c0 8.679687 7.039062 15.714843 15.71875 15.714843h136.34375c5.984375 0 11.449218-3.394531 14.097656-8.761718 2.648438-5.367188 2.019531-11.769532-1.621094-16.519532zm0 0" fill="#ff2323"/><path d="m198.777344 38.371094h-93.414063c-8.679687 0-15.71875 7.039062-15.71875 15.71875v106.230468c0 8.679688 7.039063 15.71875 15.71875 15.71875h93.414063c8.679687 0 15.714844-7.039062 15.714844-15.71875v-106.230468c0-8.679688-7.035157-15.71875-15.714844-15.71875zm0 0" fill="#ff5b5b"/><path d="m105.363281 421.835938c-8.679687 0-15.71875-7.035157-15.71875-15.71875v-390.398438c0-8.679688 7.039063-15.71875 15.71875-15.71875 8.679688 0 15.71875 7.039062 15.71875 15.71875v390.398438c0 8.683593-7.039062 15.71875-15.71875 15.71875zm0 0" fill="#ffdf45"/><path d="m105.363281 0v421.835938c8.679688 0 15.71875-7.035157 15.71875-15.71875v-390.398438c0-8.679688-7.039062-15.71875-15.71875-15.71875zm0 0" fill="#ffa100"/><path d="m105.363281 390.917969c-58.097656 0-105.363281 47.265625-105.363281 105.363281 0 8.679688 7.039062 15.71875 15.71875 15.71875h179.289062c8.679688 0 15.71875-7.039062 15.71875-15.71875-.003906-58.097656-47.269531-105.363281-105.363281-105.363281zm0 0" fill="#81d39a"/><path d="m105.363281 390.917969v121.082031h89.644531c8.679688 0 15.71875-7.039062 15.71875-15.71875-.003906-58.097656-47.269531-105.363281-105.363281-105.363281zm0 0" fill="#1cbf66"/></svg>