<svg height="512pt" viewBox="-59 0 512 512" width="512pt" xmlns="http://www.w3.org/2000/svg"><path d="m320.707031 340.257812h-248.253906c-39.949219 0-72.453125 32.5-72.453125 72.449219v26.839844c0 39.949219 32.503906 72.453125 72.453125 72.453125h248.25c39.953125 0 72.453125-32.503906 72.453125-72.453125v-26.839844c0-39.949219-32.5-72.449219-72.449219-72.449219zm0 0" fill="#7facd1"/><path d="m320.707031 340.257812h-124.128906v171.742188h124.128906c39.949219 0 72.449219-32.503906 72.449219-72.453125v-26.839844c0-39.949219-32.5-72.449219-72.449219-72.449219zm0 0" fill="#505f7d"/><path d="m341.667969 219.242188c-6.621094-13.433594-20.035157-21.777344-35.011719-21.777344h-32.007812v-182.464844c0-8.285156-6.714844-15-15-15h-126.140626c-8.285156 0-15 6.714844-15 15v182.464844h-32.007812c-14.976562 0-28.390625 8.34375-35.011719 21.777344-6.617187 13.433593-5.0625 29.15625 4.0625 41.03125l110.078125 143.261718c7.445313 9.691406 18.726563 15.25 30.949219 15.25s23.503906-5.554687 30.949219-15.25l110.078125-143.261718c9.125-11.875 10.679687-27.597657 4.0625-41.03125zm0 0" fill="#fff000"/><path d="m341.667969 219.242188c-6.621094-13.433594-20.035157-21.777344-35.011719-21.777344h-32.007812v-182.464844c0-8.285156-6.714844-15-15-15h-63.070313v418.785156c12.222656 0 23.503906-5.554687 30.949219-15.25l110.078125-143.261718c9.125-11.875 10.679687-27.597657 4.0625-41.03125zm0 0" fill="#ffc900"/></svg>