<svg height="512pt" viewBox="0 -43 512 512" width="512pt" xmlns="http://www.w3.org/2000/svg"><path d="m437 0h-362c-41.355469 0-75 33.644531-75 75v276.875c0 41.355469 33.644531 75 75 75h362c41.355469 0 75-33.644531 75-75v-276.875c0-41.355469-33.644531-75-75-75zm0 0" fill="#ffc900"/><path d="m437 0h-181v426.875h181c41.355469 0 75-33.644531 75-75v-276.875c0-41.355469-33.644531-75-75-75zm0 0" fill="#faa300"/><path d="m505.0625 43.546875c-11.917969-25.683594-37.9375-43.546875-68.0625-43.546875h-362c-30.835938 0-57.378906 18.710938-68.886719 45.371094l211.585938 134.746094c23.339843 14.859374 53.195312 14.761718 76.433593-.257813zm0 0" fill="#fff000"/><path d="m505.0625 43.546875c-11.917969-25.683594-37.9375-43.546875-68.0625-43.546875h-181v191.191406c13.410156.027344 26.40625-3.753906 38.132812-11.332031zm0 0" fill="#ffc900"/></svg>