<svg height="511pt" viewBox="-122 0 511 511.99872" width="511pt" xmlns="http://www.w3.org/2000/svg"><path d="m220.757812 49.902344c-1.886718-2.328125-4.675781-3.792969-7.664062-4.019532-2.980469-.222656-5.960938.800782-8.171875 2.8125-6.054687 5.511719-15.148437 21.527344-21.910156 37.765626-25.539063-52.65625-73.769531-78.421876-88.898438-85.441407-3.335937-1.546875-7.195312-1.324219-10.328125.605469-3.128906 1.925781-5.066406 5.269531-5.1875 8.945312-.257812 7.964844-2.359375 28.523438-16.277344 47.363282-3.828124 5.175781-8.691406 10.691406-13.839843 16.53125-20.25 22.957031-47.980469 54.398437-47.980469 107.492187v.175781c.027344 1.246094.828125 30.925782 17.574219 60.898438 15.617187 27.953125 48.382812 61.277344 115.789062 61.277344s100.175781-33.324219 115.792969-61.277344c16.746094-29.972656 17.546875-59.652344 17.570312-60.898438.003907-.058593.003907-.117187.003907-.175781.003906-46.734375-17.371094-96.101562-46.472657-132.054687zm0 0" fill="#ff5b5b"/><path d="m220.757812 49.902344c-1.886718-2.328125-4.675781-3.792969-7.664062-4.019532-2.980469-.222656-5.960938.800782-8.171875 2.8125-6.054687 5.511719-15.148437 21.527344-21.910156 37.765626-12.96875-26.734376-31.78125-46.523438-49.144531-60.460938v278.308594c67.40625 0 100.171874-33.324219 115.792968-61.277344 16.742188-29.972656 17.542969-59.652344 17.570313-60.898438 0-.058593 0-.117187 0-.175781.003906-46.734375-17.371094-96.101562-46.472657-132.054687zm0 0" fill="#ff2323"/><path d="m145.351562 171.402344c-6.441406-5.636719-16.527343-5.636719-22.964843 0-1.707031 1.496094-41.761719 37.027344-41.761719 74.476562 0 35.492188 20.898438 58.425782 53.246094 58.425782 32.34375 0 53.242187-22.933594 53.242187-58.425782 0-37.449218-40.058593-72.980468-41.761719-74.476562zm0 0" fill="#ffdf45"/><path d="m145.351562 171.402344c-3.222656-2.820313-7.351562-4.230469-11.484374-4.230469v137.132813c32.34375 0 53.246093-22.933594 53.246093-58.425782 0-37.449218-40.058593-72.980468-41.761719-74.476562zm0 0" fill="#ffa100"/><path d="m186.246094 340.8125h-104.753906c-4.648438 0-8.417969 3.769531-8.417969 8.417969v110.808593c0 28.652344 23.308593 51.960938 51.957031 51.960938h17.671875c28.648437 0 51.957031-23.308594 51.957031-51.960938v-110.808593c0-4.648438-3.765625-8.417969-8.414062-8.417969zm0 0" fill="#cfdde1"/><path d="m186.246094 340.8125h-52.378906v171.183594h8.835937c28.652344 0 51.957031-23.308594 51.957031-51.957032v-110.808593c0-4.648438-3.765625-8.417969-8.414062-8.417969zm0 0" fill="#b5c4cf"/><path d="m89.382812 407.65625h88.96875c8.996094 0 16.308594-7.316406 16.308594-16.308594v-42.117187c0-4.648438-3.765625-8.417969-8.414062-8.417969h-104.753906c-4.648438 0-8.417969 3.769531-8.417969 8.417969v42.117187c0 8.992188 7.316406 16.308594 16.308593 16.308594zm0 0" fill="#f2f8f9"/><path d="m186.246094 340.8125h-52.378906v66.84375h44.484374c8.996094 0 16.308594-7.316406 16.308594-16.308594v-42.117187c0-4.648438-3.765625-8.417969-8.414062-8.417969zm0 0" fill="#e1ecef"/><path d="m239.320312 251.007812c-1.578124-2.222656-4.136718-3.542968-6.863281-3.542968h-197.179687c-2.726563 0-5.285156 1.320312-6.863282 3.542968-1.578124 2.222657-1.980468 5.074219-1.082031 7.648438l27.730469 79.425781c4.085938 11.703125 15.039062 19.566407 27.257812 19.566407h103.09375c12.21875 0 23.175782-7.863282 27.257813-19.566407l27.730469-79.425781c.898437-2.574219.496094-5.425781-1.082032-7.648438zm0 0" fill="#cfdde1"/><path d="m239.320312 251.007812c-1.578124-2.222656-4.136718-3.542968-6.863281-3.542968h-98.589843v110.183594h51.542968c12.222656 0 23.175782-7.863282 27.261719-19.566407l27.730469-79.425781c.898437-2.574219.496094-5.425781-1.082032-7.648438zm0 0" fill="#b5c4cf"/></svg>