<svg height="512pt" viewBox="0 0 512 512" width="512pt" xmlns="http://www.w3.org/2000/svg"><path d="m256 447.734375c-105.722656 0-191.734375-86.011719-191.734375-191.734375s86.011719-191.734375 191.734375-191.734375 191.734375 86.011719 191.734375 191.734375-86.011719 191.734375-191.734375 191.734375zm0 0" fill="#9adb05"/><path d="m256 64.269531v383.460938c105.71875 0 191.730469-86.011719 191.730469-191.730469s-86.011719-191.730469-191.730469-191.730469zm0 0" fill="#83b904"/><path d="m256 94.265625c-89.179688 0-161.734375 72.554687-161.734375 161.734375s72.554687 161.734375 161.734375 161.734375 161.734375-72.554687 161.734375-161.734375-72.554687-161.734375-161.734375-161.734375zm0 0" fill="#83b904"/><path d="m417.730469 256c0 89.179688-72.550781 161.730469-161.730469 161.730469v-323.460938c89.179688 0 161.730469 72.550781 161.730469 161.730469zm0 0" fill="#628703"/><path d="m256 383.46875c-70.285156 0-127.46875-57.183594-127.46875-127.46875s57.183594-127.46875 127.46875-127.46875 127.46875 57.183594 127.46875 127.46875-57.183594 127.46875-127.46875 127.46875zm0 0" fill="#cafa5c"/><path d="m256 128.53125v254.9375c70.289062 0 127.46875-57.179688 127.46875-127.46875s-57.179688-127.46875-127.46875-127.46875zm0 0" fill="#9adb05"/><path d="m15 271c-8.285156 0-15-6.714844-15-15 0-141.160156 114.839844-256 256-256 8.285156 0 15 6.714844 15 15s-6.714844 15-15 15c-124.617188 0-226 101.382812-226 226 0 8.285156-6.714844 15-15 15zm0 0" fill="#f3eee9"/><path d="m256 512c-8.285156 0-15-6.714844-15-15s6.714844-15 15-15c124.617188 0 226-101.382812 226-226 0-8.285156 6.714844-15 15-15s15 6.714844 15 15c0 141.160156-114.839844 256-256 256zm0 0" fill="#e9dfda"/><path d="m313.289062 359.121094-57.289062-41.621094-57.289062 41.621094c-5.257813 3.820312-12.375 3.820312-17.636719 0-5.253907-3.816406-7.457031-10.589844-5.445313-16.769532l21.878906-67.347656-57.289062-41.625c-5.257812-3.820312-7.457031-10.589844-5.449219-16.769531 2.007813-6.179687 7.765625-10.367187 14.265625-10.367187h70.816406l21.882813-67.34375c2.007813-6.183594 7.765625-10.367188 14.265625-10.367188 6.496094 0 12.257812 4.1875 14.265625 10.367188l21.878906 67.34375h70.816407c6.5 0 12.257812 4.1875 14.265624 10.367187 2.007813 6.179687-.191406 12.949219-5.449218 16.769531l-57.289063 41.625 21.882813 67.347656c2.007812 6.179688-.191406 12.949219-5.449219 16.769532-4.917969 3.574218-12.046875 4.058594-17.632813 0zm0 0" fill="#9adb05"/><path d="m313.289062 359.121094c5.585938 4.058594 12.714844 3.574218 17.636719 0 5.253907-3.816406 7.457031-10.589844 5.445313-16.769532l-21.878906-67.347656 57.289062-41.625c5.257812-3.820312 7.457031-10.589844 5.449219-16.769531-2.007813-6.179687-7.765625-10.367187-14.265625-10.367187h-70.816406l-21.882813-67.34375c-2.007813-6.183594-7.765625-10.367188-14.265625-10.367188v188.964844zm0 0" fill="#83b904"/></svg>