<svg height="512pt" viewBox="0 -35 512 512" width="512pt" xmlns="http://www.w3.org/2000/svg"><path d="m504.824219 2.304688c-4.460938-2.78125-10.042969-3.0625-14.761719-.746094l-153.804688 75.484375-153.804687-75.484375c-4.1875-2.054688-9.230469-2.058594-13.421875 0l-160.511719 78.777344c-5.214843 2.5625-8.519531 7.863281-8.519531 13.671874v332.84375c0 11.066407 11.960938 18.570313 21.9375 13.671876l153.804688-75.488282 153.804687 75.488282c4.1875 2.058593 9.230469 2.058593 13.417969 0l160.515625-78.78125c5.214843-2.558594 8.519531-7.859376 8.519531-13.667969v-332.847657c0-5.257812-2.710938-10.144531-7.175781-12.921874-4.460938-2.78125 4.464843 2.777343 0 0zm0 0" fill="#ffdf45"/><path d="m175.25.015625c-2.144531.0664062-4.289062.59375-6.21875 1.542969l-160.511719 78.777344c-5.214843 2.5625-8.519531 7.863281-8.519531 13.671874v332.84375c0 11.066407 11.960938 18.570313 21.9375 13.671876l153.804688-75.488282v-365.03124975c-.164063 0-.328126.00390625-.492188.01171875zm0 0" fill="#ffa100"/><path d="m504.824219 2.304688c-4.460938-2.78125-10.042969-3.0625-14.761719-.746094l-153.804688 75.484375v365.039062c2.289063 0 4.585938-.515625 6.707032-1.558593l160.515625-78.777344c5.214843-2.558594 8.519531-7.863282 8.519531-13.671875v-332.847657c0-5.257812-2.710938-10.144531-7.175781-12.921874zm0 0" fill="#ffa100"/><path d="m443.023438 143.480469-7.253907-4.351563 5.476563-12.726562c3.328125-7.726563-.238282-16.683594-7.964844-20.011719s-16.683594.242187-20.011719 7.964844l-3.859375 8.96875-3.742187-2.246094c-7.214844-4.324219-16.566407-1.984375-20.894531 5.230469-4.324219 7.210937-1.984376 16.566406 5.230468 20.890625l7.253906 4.351562-5.480468 12.730469c-3.324219 7.722656.242187 16.683594 7.96875 20.007812 1.960937.847657 4.003906 1.246094 6.015625 1.246094 5.898437 0 11.511719-3.449218 13.992187-9.210937l3.859375-8.964844 3.742188 2.246094c2.453125 1.46875 5.152343 2.167969 7.820312 2.167969 5.171875 0 10.21875-2.636719 13.074219-7.398438 4.328125-7.214844 1.984375-16.570312-5.226562-20.894531zm0 0" fill="#ff2323"/><path d="m416.511719 234.902344c-8.410157 0-15.226563 6.816406-15.226563 15.226562v4.394532c0 4.191406 0 8.9375-.15625 13.351562-.289062 8.40625 6.285156 15.457031 14.691406 15.75.183594.003906.359376.007812.539063.007812 8.167969 0 14.925781-6.476562 15.210937-14.699218.171876-4.941406.171876-9.972656.171876-14.410156v-4.394532c0-8.410156-6.820313-15.226562-15.230469-15.226562zm0 0" fill="#8f5040"/><path d="m386.585938 309.210938c-3.28125 3.519531-7.113282 6.816406-11.394532 9.800781-6.898437 4.8125-8.585937 14.304687-3.773437 21.203125 2.957031 4.246094 7.691406 6.515625 12.5 6.515625 3.007812 0 6.046875-.886719 8.699219-2.738281 6.039062-4.214844 11.503906-8.929688 16.246093-14.019532 5.734375-6.152344 5.394531-15.789062-.757812-21.523437-6.148438-5.730469-15.785157-5.394531-21.519531.761719zm0 0" fill="#8f5040"/><path d="m332.671875 332.097656c-4.742187-.371094-9.617187-1.34375-14.484375-2.882812-8.019531-2.539063-16.574219 1.902344-19.113281 9.921875-2.539063 8.015625 1.902343 16.574219 9.917969 19.113281 7.074218 2.242188 14.234374 3.660156 21.289062 4.214844.40625.03125.8125.046875 1.210938.046875 7.871093 0 14.539062-6.058594 15.167968-14.035157.660156-8.386718-5.601562-15.71875-13.988281-16.378906zm0 0" fill="#a66856"/><path d="m336.257812 332.835938v28.894531c5.640626-1.871094 9.90625-6.957031 10.402344-13.253907.5625-7.132812-3.898437-13.492187-10.402344-15.640624zm0 0" fill="#8f5040"/><g fill="#a66856"><path d="m274.800781 290.714844c-2.847656-7.914063-11.570312-12.023438-19.484375-9.179688-7.914062 2.84375-12.023437 11.566406-9.179687 19.480469 2.515625 7.007813 5.902343 13.632813 10.054687 19.691406 2.953125 4.304688 7.722656 6.617188 12.574219 6.617188 2.96875 0 5.964844-.867188 8.597656-2.671875 6.9375-4.753906 8.703125-14.234375 3.949219-21.171875-2.683594-3.910157-4.875-8.203125-6.511719-12.765625zm0 0"/><path d="m256.039062 255.765625c8.375 0 15.183594-6.769531 15.226563-15.152344l.015625-3.222656c.023438-5.027344.050781-10.054687.066406-15.082031.023438-8.410156-6.773437-15.25-15.183594-15.273438-.015624 0-.03125 0-.046874 0-8.390626 0-15.203126 6.789063-15.230469 15.183594-.015625 5.003906-.039063 10.011719-.0625 15.019531l-.015625 3.226563c-.042969 8.410156 6.742187 15.261718 15.152344 15.300781zm0 0"/><path d="m256.859375 181.234375c7.875-2.957031 11.863281-11.738281 8.902344-19.609375-2.554688-6.800781-5.980469-13.339844-10.191407-19.433594-4.777343-6.917968-14.261718-8.65625-21.183593-3.875s-8.65625 14.265625-3.875 21.1875c2.792969 4.042969 5.0625 8.359375 6.738281 12.828125 2.296875 6.113281 8.097656 9.878907 14.261719 9.878907 1.777343 0 3.585937-.3125 5.347656-.976563zm0 0"/><path d="m202.585938 104.394531c-7.132813-2-14.425782-3.128906-21.675782-3.34375-8.398437-.265625-15.425781 6.359375-15.675781 14.765625-.253906 8.40625 6.359375 15.425782 14.765625 15.679688 4.773438.140625 9.601562.890625 14.347656 2.222656 1.378906.386719 2.765625.570312 4.125.570312 6.65625 0 12.769532-4.394531 14.65625-11.113281 2.273438-8.097656-2.445312-16.507812-10.542968-18.78125zm0 0"/></g><path d="m165.234375 115.816406c-.207031 6.921875 4.238281 12.894532 10.507813 14.929688v-28.945313c-5.933594 1.933594-10.3125 7.417969-10.507813 14.015625zm0 0" fill="#8f5040"/><path d="m119.152344 124.921875c-5.292969 5.128906-9.929688 10.957031-13.777344 17.320313-4.347656 7.199218-2.039062 16.5625 5.160156 20.910156 2.460938 1.488281 5.179688 2.199218 7.859375 2.199218 5.15625 0 10.1875-2.621093 13.050781-7.355468 2.492188-4.125 5.488282-7.890625 8.898438-11.199219 6.042969-5.851563 6.195312-15.492187.34375-21.535156-5.851562-6.039063-15.492188-6.191407-21.535156-.339844zm0 0" fill="#8f5040"/><path d="m92.566406 222.285156c0 8.410156 6.820313 15.230469 15.230469 15.230469s15.226563-6.820313 15.226563-15.230469c0-5.226562-.023438-9.328125-.042969-13.117187l-.027344-5.207031c-.03125-8.390626-6.84375-15.167969-15.226563-15.167969-.019531 0-.039062 0-.0625 0-8.410156.03125-15.203124 6.875-15.167968 15.285156l.027344 5.265625c.019531 3.738281.042968 7.785156.042968 12.941406zm0 0" fill="#8f5040"/><path d="m129.144531 293.019531-7.253906-4.351562 5.480469-12.726563c3.324218-7.726562-.242188-16.683594-7.96875-20.007812-7.722656-3.328125-16.683594.238281-20.007813 7.964844l-3.859375 8.964843-3.746094-2.242187c-7.214843-4.328125-16.566406-1.984375-20.890624 5.226562-4.328126 7.214844-1.984376 16.566406 5.226562 20.894532l7.253906 4.351562-5.476562 12.726562c-3.328125 7.726563.238281 16.683594 7.964844 20.007813 1.964843.847656 4.003906 1.246094 6.015624 1.246094 5.898438 0 11.515626-3.449219 13.996094-9.210938l3.859375-8.964843 3.742188 2.242187c2.453125 1.472656 5.152343 2.171875 7.816406 2.171875 5.175781 0 10.222656-2.636719 13.078125-7.398438 4.324219-7.214843 1.984375-16.566406-5.230469-20.894531zm0 0" fill="#005f7e"/></svg>