<svg height="512pt" viewBox="0 0 512 512" width="512pt" xmlns="http://www.w3.org/2000/svg"><path d="m416.664062 273.132812h-16.0625c-30.417968 0-55.167968 21.144532-55.167968 47.132813v32.132813c0 8.285156 6.714844 15 15 15s15-6.714844 15-15h66.402344c0 8.285156 6.714843 15 15 15 8.28125 0 15-6.714844 15-15v-32.132813c0-25.988281-24.75-47.132813-55.171876-47.132813zm0 0" fill="#f30051"/><path d="m296.164062 184.058594c-8.28125 0-15 6.714844-15 15h-50.328124c0-8.285156-6.71875-15-15-15-8.285157 0-15 6.714844-15 15v153.339844c0 8.285156 6.714843 15 15 15h80.328124c8.285157 0 15-6.714844 15-15v-153.339844c0-8.285156-6.714843-15-15-15zm0 0" fill="#c5e1e6"/><path d="m296.164062 184.058594c-8.28125 0-15 6.714844-15 15h-25.164062v168.339844h40.164062c8.285157 0 15-6.714844 15-15v-153.339844c0-8.285156-6.714843-15-15-15zm0 0" fill="#8db9c4"/><path d="m256 0c-61.425781 0-111.398438 49.972656-111.398438 111.398438 0 61.425781 49.972657 111.402343 111.398438 111.402343s111.398438-49.976562 111.398438-111.402343c0-61.425782-49.972657-111.398438-111.398438-111.398438zm0 0" fill="#ff4949"/><path d="m456.835938 337.398438h-401.671876c-30.417968 0-55.164062 24.75-55.164062 55.167968v64.269532c0 30.417968 24.746094 55.164062 55.164062 55.164062h401.671876c30.417968 0 55.164062-24.746094 55.164062-55.164062v-64.269532c0-30.417968-24.746094-55.167968-55.164062-55.167968zm0 0" fill="#3d5959"/><path d="m367.398438 111.398438c0-61.425782-49.972657-111.398438-111.398438-111.398438v222.800781c61.425781 0 111.398438-49.976562 111.398438-111.402343zm0 0" fill="#f30051"/><path d="m456.835938 337.398438h-200.835938v174.601562h200.835938c30.417968 0 55.164062-24.746094 55.164062-55.164062v-64.269532c0-30.417968-24.746094-55.167968-55.164062-55.167968zm0 0" fill="#293939"/></svg>