<svg height="512pt" viewBox="-100 0 512 512" width="512pt" xmlns="http://www.w3.org/2000/svg"><path d="m219.253906 268.257812h-126.351562c-8.285156 0-15 6.71875-15 15v150.566407c0 43.105469 35.070312 78.175781 78.175781 78.175781s78.175781-35.070312 78.175781-78.175781v-150.566407c0-8.28125-6.714844-15-15-15zm0 0" fill="#fd0134"/><path d="m219.253906 268.257812h-63.175781v243.742188c43.105469 0 78.175781-35.070312 78.175781-78.175781v-150.566407c0-8.28125-6.714844-15-15-15zm0 0" fill="#ad0123"/><path d="m156.078125 0c-86.0625 0-156.078125 70.015625-156.078125 156.078125s70.015625 156.078125 156.078125 156.078125 156.078125-70.015625 156.078125-156.078125-70.015625-156.078125-156.078125-156.078125zm0 0" fill="#a5c5e3"/><path d="m156.078125 0v312.15625c86.0625 0 156.078125-70.015625 156.078125-156.078125s-70.015625-156.078125-156.078125-156.078125zm0 0" fill="#7facd1"/><path d="m156.078125 61.007812c-52.421875 0-95.070313 42.648438-95.070313 95.070313 0 52.425781 42.648438 95.074219 95.070313 95.074219 52.425781 0 95.074219-42.648438 95.074219-95.074219 0-52.421875-42.648438-95.070313-95.074219-95.070313zm0 0" fill="#ebf7ff"/><path d="m156.078125 61.007812v190.144532c52.425781 0 95.074219-42.648438 95.074219-95.074219 0-52.421875-42.648438-95.070313-95.074219-95.070313zm0 0" fill="#c4e5ff"/></svg>