<svg height="512pt" viewBox="-192 0 512 512" width="512pt" xmlns="http://www.w3.org/2000/svg"><path d="m89.199219 0h-50.726563c-21.214844 0-38.472656 17.257812-38.472656 38.472656v361.824219c0 5.875 0 23.757813 36.035156 94.652344 5.34375 10.515625 15.996094 17.050781 27.800782 17.050781 11.804687 0 22.457031-6.535156 27.800781-17.050781 36.035156-70.894531 36.035156-88.777344 36.035156-94.652344v-361.824219c0-21.214844-17.257813-38.472656-38.472656-38.472656zm0 0" fill="#fff000"/><path d="m89.199219 0h-25.363281v512c11.804687 0 22.457031-6.535156 27.800781-17.050781 36.035156-70.894531 36.035156-88.777344 36.035156-94.652344v-361.824219c0-21.214844-17.257813-38.472656-38.472656-38.472656zm0 0" fill="#ffc900"/><path d="m40.605469 59.804688h46.460937v354.785156h-46.460937zm0 0" fill="#232936"/><path d="m40.605469 59.804688h23.230469v354.785156h-23.230469zm0 0" fill="#31394a"/><path d="m127.671875 38.472656c0-21.214844-17.257813-38.472656-38.472656-38.472656h-50.726563c-21.214844 0-38.472656 17.257812-38.472656 38.472656v36.199219h127.671875zm0 0" fill="#fd0134"/><path d="m89.199219 0h-25.363281v74.671875h63.835937v-36.199219c0-21.214844-17.257813-38.472656-38.472656-38.472656zm0 0" fill="#ad0123"/><path d="m.00390625 400.792969c.02343755 6.371093.95703175 25.148437 36.03124975 94.15625 5.34375 10.515625 15.996094 17.050781 27.800782 17.050781 11.804687 0 22.457031-6.535156 27.800781-17.050781 35.074219-69.007813 36.007812-87.785157 36.035156-94.15625zm0 0" fill="#ffcc9c"/><path d="m63.835938 512c11.804687 0 22.457031-6.535156 27.800781-17.050781 35.074219-69.007813 36.007812-87.785157 36.035156-94.15625h-63.835937zm0 0" fill="#e6b58d"/></svg>