<svg height="512pt" viewBox="0 0 512 512" width="512pt" xmlns="http://www.w3.org/2000/svg"><path d="m436.75 220.917969c-1.699219 0-3.394531.054687-5.085938.171875v-85.589844c0-30.417969-24.746093-55.167969-55.164062-55.167969h-85.589844c.113282-1.6875.171875-3.382812.171875-5.082031 0-41.492188-33.757812-75.25-75.25-75.25-41.492187 0-75.25 33.757812-75.25 75.25 0 1.699219.058594 3.394531.171875 5.082031h-85.589844c-30.417968 0-55.164062 24.75-55.164062 55.167969v103.859375c0 4.867187 2.363281 9.433594 6.339844 12.246094 3.972656 2.808593 9.066406 3.515625 13.65625 1.894531 4.855468-1.714844 9.929687-2.582031 15.085937-2.582031 24.949219 0 45.25 20.296875 45.25 45.25 0 24.949219-20.300781 45.25-45.25 45.25-5.160156 0-10.230469-.871094-15.082031-2.585938-4.589844-1.621093-9.683594-.917969-13.660156 1.894531-3.976563 2.808594-6.339844 7.375-6.339844 12.246094v103.859375c0 30.421875 24.746094 55.167969 55.164062 55.167969h103.859376.023437c8.28125 0 15-6.714844 15-15 0-2.011719-.398437-3.929688-1.113281-5.679688-1.5625-4.636718-2.351563-9.476562-2.351563-14.402343 0-24.953125 20.300781-45.25 45.25-45.25s45.25 20.296875 45.25 45.25c0 5.15625-.871093 10.230469-2.585937 15.078125-1.625 4.59375-.917969 9.6875 1.894531 13.664062 2.8125 3.976563 7.378906 6.339844 12.25 6.339844h103.859375c30.417969 0 55.164062-24.746094 55.164062-55.167969v-85.585937c1.691407.113281 3.386719.171875 5.085938.171875 41.492188 0 75.25-33.757813 75.25-75.25 0-41.492188-33.757812-75.25-75.25-75.25zm0 0" fill="#ff9f00"/><path d="m436.75 220.917969c-1.699219 0-3.394531.054687-5.085938.171875v-85.589844c0-30.417969-24.746093-55.167969-55.164062-55.167969h-85.589844c.113282-1.6875.171875-3.382812.171875-5.082031 0-41.492188-33.757812-75.25-75.25-75.25v431.667969c24.949219 0 45.25 20.296875 45.25 45.25 0 5.15625-.871093 10.230469-2.585937 15.078125-1.625 4.59375-.917969 9.6875 1.894531 13.664062 2.8125 3.976563 7.378906 6.339844 12.25 6.339844h103.859375c30.417969 0 55.164062-24.746094 55.164062-55.167969v-85.585937c1.691407.113281 3.386719.171875 5.085938.171875 41.492188 0 75.25-33.757813 75.25-75.25 0-41.492188-33.757812-75.25-75.25-75.25zm0 0" fill="#ff641a"/></svg>