<svg height="511pt" viewBox="0 -44 511.99984 511" width="511pt" xmlns="http://www.w3.org/2000/svg"><path d="m138.605469 339.101562c-23.539063 0-42.6875 19.148438-42.6875 42.6875 0 23.539063 19.148437 42.6875 42.6875 42.6875 23.539062 0 42.6875-19.148437 42.6875-42.6875 0-23.539062-19.148438-42.6875-42.6875-42.6875zm0 0" fill="#586a78"/><path d="m138.605469 339.101562v85.375c23.539062 0 42.6875-19.148437 42.6875-42.6875 0-23.539062-19.148438-42.6875-42.6875-42.6875zm0 0" fill="#31394a"/><path d="m359.957031 339.101562c-23.535156 0-42.6875 19.148438-42.6875 42.6875 0 23.539063 19.152344 42.6875 42.6875 42.6875 23.539063 0 42.6875-19.148437 42.6875-42.6875 0-23.539062-19.148437-42.6875-42.6875-42.6875zm0 0" fill="#586a78"/><path d="m359.957031 339.101562v85.375c23.539063 0 42.6875-19.148437 42.6875-42.6875 0-23.539062-19.148437-42.6875-42.6875-42.6875zm0 0" fill="#31394a"/><path d="m505.777344 100.914062c-6.5-9.921874-17.015625-16.121093-28.847656-17.003906l-394.097657-29.4375c-4.683593-.355468-9.261719 1.515625-12.367187 5.039063-3.109375 3.523437-4.382813 8.300781-3.449219 12.902343l43.890625 216.101563c1.421875 6.992187 7.566406 12.015625 14.699219 12.015625h299.246093c16.078126 0 30.441407-10.199219 35.746094-25.378906l49.257813-141c3.910156-11.199219 2.425781-23.316406-4.078125-33.238282zm0 0" fill="#ebf7ff"/><path d="m505.777344 100.914062c-6.5-9.921874-17.015625-16.121093-28.847656-17.003906l-199.285157-14.886718v231.507812h147.207031c16.078126 0 30.441407-10.199219 35.746094-25.378906l49.257813-141c3.910156-11.199219 2.425781-23.316406-4.078125-33.238282zm0 0" fill="#c4e5ff"/><path d="m404.148438 332.742188h-277.925782c-3.890625 0-5.933594-2.539063-6.628906-3.628907-.699219-1.09375-2.140625-4.015625-.503906-7.542969l13.789062-29.726562c1.347656-2.90625 1.730469-6.167969 1.09375-9.304688l-54.953125-270.03125c-1.421875-6.988281-7.566406-12.007812-14.699219-12.007812h-49.320312c-8.285156 0-15 6.714844-15 15s6.714844 15 15 15h37.066406l51.523438 253.191406-11.714844 25.253906c-5.46875 11.785157-4.558594 25.359376 2.433594 36.308594 6.992187 10.953125 18.921875 17.492188 31.914062 17.492188h277.925782c8.285156 0 15-6.71875 15-15 0-8.289063-6.714844-15.003906-15-15.003906zm0 0" fill="#9cc5e6"/></svg>