<?xml version="1.0" encoding="iso-8859-1"?>
<!-- Generator: Adobe Illustrator 19.0.0, SVG Export Plug-In . SVG Version: 6.00 Build 0)  -->
<svg version="1.1" id="Capa_1" xmlns="http://www.w3.org/2000/svg" xmlns:xlink="http://www.w3.org/1999/xlink" x="0px" y="0px"
	 viewBox="0 0 512 512" style="enable-background:new 0 0 512 512;" xml:space="preserve">
<path style="fill:#435797;" d="M15,512c-3.839,0-7.678-1.465-10.606-4.394c-5.858-5.857-5.858-15.355,0-21.213l329.218-329.218
	c5.857-5.857,15.355-5.857,21.213,0s5.858,15.355,0,21.213L25.606,507.606C22.678,510.535,18.839,512,15,512z"/>
<path style="fill:#273658;" d="M135.038,396.963c-5.119,0-10.237-1.952-14.142-5.857c-7.811-7.811-7.811-20.475,0-28.285
	l209.18-209.181c7.811-7.811,20.474-7.811,28.284,0s7.81,20.475,0,28.285l-209.18,209.18
	C145.274,395.011,140.156,396.963,135.038,396.963z"/>
<path d="M416.239,110.76c-3.839,0-7.678-1.465-10.607-4.394c-5.858-5.858-5.857-15.356,0.001-21.214l36.014-36.011
	c5.858-5.856,15.355-5.856,21.213,0.001c5.858,5.858,5.857,15.355-0.001,21.214l-36.014,36.011
	C423.916,109.295,420.077,110.76,416.239,110.76z"/>
<path style="fill:#ECB53A;" d="M416.239,110.76c-3.839,0-7.678-1.465-10.607-4.394c-5.858-5.858-5.857-15.356,0.001-21.214
	l36.014-36.011c5.858-5.856,15.355-5.856,21.213,0.001c5.858,5.858,5.857,15.355-0.001,21.214l-36.014,36.011
	C423.916,109.295,420.077,110.76,416.239,110.76z"/>
<g>
	<path style="fill:#E18933;" d="M462.86,49.143l-57.228,57.224c2.929,2.929,6.768,4.394,10.607,4.394
		c3.838,0,7.677-1.465,10.606-4.393l36.014-36.011C468.717,64.498,468.718,55.001,462.86,49.143z"/>
	<path style="fill:#E18933;" d="M452.253,290.815c-3.839,0-7.677-1.464-10.606-4.393l-36.014-36.011
		c-5.858-5.858-5.859-15.355-0.001-21.214c5.857-5.857,15.355-5.858,21.213-0.001l36.014,36.011
		c5.858,5.858,5.859,15.355,0.001,21.214C459.931,289.35,456.092,290.815,452.253,290.815z"/>
</g>
<path style="fill:#ECB53A;" d="M272.197,110.76c-3.839,0-7.678-1.465-10.607-4.394l-36.01-36.011
	c-5.858-5.857-5.858-15.355,0-21.213c5.857-5.857,15.355-5.857,21.213,0l36.011,36.011c5.858,5.857,5.858,15.355,0,21.213
	C279.874,109.295,276.036,110.76,272.197,110.76z"/>
<path style="fill:#E18933;" d="M497,182.782h-50.927c-8.284,0-15-6.716-15-15s6.716-15,15-15H497c8.284,0,15,6.716,15,15
	S505.284,182.782,497,182.782z"/>
<path style="fill:#ECB53A;" d="M242.363,182.782h-50.927c-8.284,0-15-6.716-15-15s6.716-15,15-15h50.927c8.284,0,15,6.716,15,15
	S250.647,182.782,242.363,182.782z"/>
<path style="fill:#E18933;" d="M344.218,335.565c-8.284,0-15-6.716-15-15v-50.928c0-8.284,6.716-15,15-15s15,6.716,15,15v50.928
	C359.218,328.849,352.502,335.565,344.218,335.565z"/>
<path style="fill:#ECB53A;" d="M344.218,80.926c-8.284,0-15-6.716-15-15V15c0-8.284,6.716-15,15-15s15,6.716,15,15v50.926
	C359.218,74.21,352.502,80.926,344.218,80.926z"/>
<g>
</g>
<g>
</g>
<g>
</g>
<g>
</g>
<g>
</g>
<g>
</g>
<g>
</g>
<g>
</g>
<g>
</g>
<g>
</g>
<g>
</g>
<g>
</g>
<g>
</g>
<g>
</g>
<g>
</g>
</svg>
