<svg height="512pt" viewBox="-76 0 512 512" width="512pt" xmlns="http://www.w3.org/2000/svg"><path d="m334.464844 129.972656h-309.449219c-8.285156 0-15 6.714844-15 15v301.957032c0 35.878906 29.1875 65.070312 65.066406 65.070312h209.3125c35.878907 0 65.070313-29.191406 65.070313-65.070312v-301.957032c0-8.285156-6.71875-15-15-15zm0 0" fill="#7facd1"/><path d="m151.226562 65.535156v-28.488281c0-3.886719 3.160157-7.046875 7.046876-7.046875h42.933593c3.886719 0 7.046875 3.160156 7.046875 7.046875v28.488281h30v-28.488281c0-20.429687-16.621094-37.046875-37.046875-37.046875h-42.933593c-20.429688 0-37.046876 16.617188-37.046876 37.046875v28.488281zm0 0" fill="#586a78"/><path d="m201.207031 0h-21.46875v30h21.46875c3.886719 0 7.046875 3.160156 7.046875 7.046875v28.488281h30v-28.488281c0-20.429687-16.621094-37.046875-37.046875-37.046875zm0 0" fill="#31394a"/><path d="m334.464844 129.972656h-154.726563v382.027344h104.65625c35.878907 0 65.070313-29.191406 65.070313-65.070312v-301.957032c0-8.285156-6.71875-15-15-15zm0 0" fill="#505f7d"/><path d="m106.757812 326.554688c-8.285156 0-15 6.71875-15 15v170.445312h30v-170.445312c0-8.28125-6.714843-15-15-15zm0 0" fill="#ebf7ff"/><path d="m179.738281 326.554688c-8.285156 0-15 6.71875-15 15v170.445312h30v-170.445312c0-8.28125-6.714843-15-15-15zm0 0" fill="#ebf7ff"/><path d="m179.738281 326.554688v185.445312h15v-170.445312c0-8.28125-6.714843-15-15-15zm0 0" fill="#c4e5ff"/><path d="m252.71875 326.554688c-8.28125 0-15 6.71875-15 15v170.445312h30v-170.445312c0-8.28125-6.714844-15-15-15zm0 0" fill="#c4e5ff"/><path d="m294.410156 49.589844h-229.339844c-35.878906 0-65.070312 29.191406-65.070312 65.070312v48.644532c0 8.285156 6.714844 15 15 15h329.480469c8.28125 0 15-6.714844 15-15v-48.644532c-.003907-35.878906-29.191407-65.070312-65.070313-65.070312zm0 0" fill="#ebf7ff"/><path d="m294.410156 49.589844h-114.671875v128.714844h164.738281c8.285157 0 15-6.714844 15-15v-48.644532c0-35.878906-29.1875-65.070312-65.066406-65.070312zm0 0" fill="#c4e5ff"/></svg>